# Blender v3.0.0 OBJ File: 'Houses_FirstAge_3_Level1.blend'
# www.blender.org
mtllib Houses_FirstAge_3_Level1.mtl
o Houses_FirstAge_3_Level1_Cube.242
v -0.678707 0.488932 0.609300
v -0.678707 0.488932 0.048267
v -0.671550 0.530993 0.609300
v -0.671550 0.530993 0.048267
v -0.367617 0.487999 0.048267
v -0.367617 0.487999 0.609300
v -0.367617 0.530993 0.048267
v -0.367617 0.530993 0.609300
v -0.056527 0.488932 0.609300
v -0.056527 0.488932 0.048267
v -0.063684 0.530993 0.609300
v -0.063683 0.530993 0.048267
v -0.681007 0.506839 0.056577
v -0.681007 -0.002423 0.056577
v -0.642002 0.506839 0.056577
v -0.642002 -0.002423 0.056577
v -0.681007 0.506839 0.098388
v -0.681007 -0.002423 0.098388
v -0.642002 0.506839 0.098388
v -0.642002 -0.002423 0.098388
v -0.705870 0.479318 0.041639
v -0.705870 0.535026 0.041639
v -0.705870 0.479318 0.102689
v -0.705870 0.535026 0.102689
v -0.683849 0.538729 0.022384
v -0.683849 0.475616 0.022384
v -0.622799 0.538729 0.022384
v -0.622799 0.475616 0.022384
v -0.651004 0.145829 0.058115
v -0.651004 0.184834 0.058115
v -0.651004 0.145829 0.099926
v -0.651004 0.184834 0.099926
v -0.674284 0.145829 0.091839
v -0.674284 0.184834 0.091839
v -0.632473 0.145829 0.091839
v -0.632473 0.184834 0.091839
v -0.681007 0.506839 0.332808
v -0.681007 -0.002423 0.332808
v -0.642002 0.506839 0.332808
v -0.642002 -0.002423 0.332808
v -0.681007 0.506839 0.374620
v -0.681007 -0.002423 0.374620
v -0.642002 0.506839 0.374620
v -0.642002 -0.002423 0.374620
v -0.681007 0.506839 0.600989
v -0.681007 -0.002423 0.600989
v -0.642002 0.506839 0.600989
v -0.642002 -0.002423 0.600989
v -0.681007 0.506839 0.559178
v -0.681007 -0.002423 0.559178
v -0.642002 0.506839 0.559178
v -0.642002 -0.002423 0.559178
v -0.705870 0.479318 0.615928
v -0.705870 0.535026 0.615928
v -0.705870 0.479318 0.554878
v -0.705870 0.535026 0.554878
v -0.683849 0.538729 0.635182
v -0.683849 0.475616 0.635182
v -0.622800 0.538729 0.635182
v -0.622800 0.475616 0.635182
v -0.674284 0.145829 0.565727
v -0.674284 0.184834 0.565727
v -0.632473 0.145829 0.565727
v -0.632473 0.184834 0.565727
v -0.054227 0.506839 0.056577
v -0.054227 -0.002423 0.056577
v -0.093232 0.506839 0.056577
v -0.093232 -0.002423 0.056577
v -0.054227 0.506839 0.098388
v -0.054227 -0.002423 0.098388
v -0.093232 0.506839 0.098388
v -0.093232 -0.002423 0.098388
v -0.029364 0.479318 0.041639
v -0.367617 0.479318 0.041639
v -0.029364 0.535026 0.041639
v -0.367617 0.535026 0.041639
v -0.029364 0.479318 0.102689
v -0.367617 0.479318 0.102689
v -0.029364 0.535026 0.102689
v -0.367617 0.535026 0.102689
v -0.051384 0.538729 0.022384
v -0.051384 0.475616 0.022384
v -0.112434 0.538729 0.022384
v -0.112434 0.475616 0.022384
v -0.084229 0.145829 0.058115
v -0.084229 0.184834 0.058115
v -0.084229 0.145829 0.099926
v -0.084229 0.184834 0.099926
v -0.060949 0.145829 0.091839
v -0.060949 0.184834 0.091839
v -0.102760 0.145829 0.091839
v -0.102760 0.184834 0.091839
v -0.054227 0.506839 0.332808
v -0.054227 -0.002423 0.332808
v -0.093232 0.506839 0.332808
v -0.093232 -0.002423 0.332808
v -0.054227 0.506839 0.374620
v -0.054227 -0.002423 0.374620
v -0.093232 0.506839 0.374620
v -0.093232 -0.002423 0.374620
v -0.054227 0.506839 0.600989
v -0.054227 -0.002423 0.600989
v -0.093232 0.506839 0.600989
v -0.093232 -0.002423 0.600989
v -0.054227 0.506839 0.559178
v -0.054227 -0.002423 0.559178
v -0.093232 0.506839 0.559178
v -0.093232 -0.002423 0.559178
v -0.029364 0.479318 0.615928
v -0.367617 0.479318 0.615928
v -0.029364 0.535026 0.615928
v -0.367617 0.535026 0.615928
v -0.029364 0.479318 0.554878
v -0.367617 0.479318 0.554878
v -0.029364 0.535026 0.554878
v -0.367617 0.535026 0.554878
v -0.051384 0.538729 0.635182
v -0.051384 0.475616 0.635182
v -0.112434 0.538729 0.635182
v -0.112434 0.475616 0.635182
v -0.060949 0.145829 0.565727
v -0.060949 0.184834 0.565727
v -0.102760 0.145829 0.565727
v -0.102760 0.184834 0.565727
v -0.678255 0.570588 -0.005046
v -0.667234 0.565935 0.629791
v -0.676027 0.532449 0.004409
v -0.665553 0.529372 0.625986
v -0.597415 0.571653 -0.006702
v -0.586923 0.567115 0.627956
v -0.595187 0.533514 0.002753
v -0.585242 0.530552 0.624151
v -0.672127 0.569063 0.358052
v -0.670351 0.536939 0.363322
v -0.591288 0.570128 0.356396
v -0.589511 0.538004 0.361667
v -0.586094 0.569979 -0.001817
v -0.588042 0.569273 0.644598
v -0.584643 0.529726 0.008917
v -0.586498 0.529923 0.640684
v -0.505231 0.570106 -0.002287
v -0.497105 0.569416 0.644069
v -0.503780 0.529853 0.008446
v -0.495560 0.530066 0.640155
v -0.584353 0.569247 0.360813
v -0.583016 0.535013 0.367359
v -0.503491 0.569374 0.360343
v -0.502154 0.535140 0.366888
v -0.493480 0.569187 -0.001335
v -0.500748 0.564808 0.633504
v -0.492154 0.531047 0.008187
v -0.499036 0.528230 0.629765
v -0.412619 0.569665 -0.000822
v -0.411146 0.565339 0.634073
v -0.411293 0.531526 0.008701
v -0.409434 0.528761 0.630334
v -0.495403 0.567798 0.361821
v -0.494002 0.535665 0.367150
v -0.414542 0.568277 0.362334
v -0.413141 0.536144 0.367664
v -0.326953 0.569187 -0.001335
v -0.319685 0.564808 0.633504
v -0.328279 0.531047 0.008187
v -0.321396 0.528230 0.629765
v -0.407813 0.569665 -0.000822
v -0.409287 0.565339 0.634073
v -0.409139 0.531526 0.008701
v -0.410998 0.528761 0.630334
v -0.325029 0.567798 0.361821
v -0.326431 0.535665 0.367150
v -0.405890 0.568277 0.362334
v -0.407291 0.536144 0.367664
v -0.326091 0.570588 -0.005046
v -0.315070 0.565935 0.629791
v -0.323863 0.532449 0.004409
v -0.313389 0.529372 0.625986
v -0.245251 0.571653 -0.006702
v -0.234759 0.567115 0.627956
v -0.243023 0.533514 0.002753
v -0.233078 0.530552 0.624151
v -0.319963 0.569063 0.358052
v -0.318187 0.536939 0.363322
v -0.239123 0.570128 0.356396
v -0.237347 0.538004 0.361667
v -0.233930 0.569979 -0.001817
v -0.235878 0.569273 0.644598
v -0.232479 0.529726 0.008917
v -0.234333 0.529923 0.640684
v -0.153067 0.570106 -0.002287
v -0.144941 0.569416 0.644069
v -0.151616 0.529853 0.008446
v -0.143396 0.530066 0.640155
v -0.232189 0.569247 0.360813
v -0.230852 0.535013 0.367359
v -0.151327 0.569374 0.360343
v -0.149990 0.535140 0.366888
v -0.141315 0.569187 -0.001335
v -0.148583 0.564808 0.633504
v -0.139989 0.531047 0.008187
v -0.146872 0.528230 0.629765
v -0.060455 0.569665 -0.000822
v -0.058981 0.565339 0.634073
v -0.059129 0.531526 0.008701
v -0.057270 0.528761 0.630334
v -0.143239 0.567798 0.361821
v -0.141838 0.535665 0.367150
v -0.062378 0.568277 0.362334
v -0.060977 0.536144 0.367664
vn 0.0000 1.0000 0.0000
vn 0.0000 0.0000 1.0000
vn 0.0000 -0.0000 -1.0000
vn -0.0030 -1.0000 0.0000
vn -0.9858 0.1677 -0.0000
vn 0.0030 -1.0000 -0.0000
vn 0.9858 0.1677 0.0000
vn -1.0000 0.0000 0.0000
vn 1.0000 0.0000 0.0000
vn 0.0000 -1.0000 0.0000
vn -0.9985 -0.0519 0.0168
vn -0.9984 -0.0534 0.0165
vn -0.9985 -0.0515 0.0169
vn 0.9985 0.0519 -0.0159
vn 0.9985 0.0515 -0.0158
vn 0.9984 0.0534 -0.0165
vn -0.0134 0.9999 0.0080
vn -0.0131 0.9999 0.0044
vn 0.0134 -0.9999 -0.0083
vn 0.0134 -0.9999 -0.0082
vn 0.0133 -0.9995 -0.0288
vn 0.0134 -0.9998 0.0123
vn -0.0137 0.9998 0.0115
vn 0.9986 0.0500 -0.0152
vn -0.9986 -0.0499 0.0171
vn -0.9993 -0.0377 -0.0031
vn -0.9993 -0.0363 0.0049
vn -0.9993 -0.0381 -0.0052
vn 0.9992 0.0372 -0.0128
vn 0.9992 0.0374 -0.0150
vn 0.9993 0.0363 -0.0049
vn -0.0016 1.0000 0.0010
vn -0.0016 1.0000 0.0020
vn 0.0016 -1.0000 -0.0020
vn 0.0015 -0.9998 -0.0186
vn 0.0017 -0.9999 0.0147
vn -0.0016 1.0000 -0.0001
vn 0.9990 0.0383 -0.0229
vn -0.9991 -0.0396 -0.0132
vn -0.9990 -0.0425 -0.0118
vn -0.9992 -0.0398 -0.0050
vn -0.9990 -0.0431 -0.0135
vn 0.9991 0.0421 -0.0027
vn 0.9991 0.0427 -0.0046
vn 0.9992 0.0398 0.0050
vn -0.0060 1.0000 0.0074
vn -0.0059 1.0000 0.0038
vn 0.0060 -1.0000 -0.0077
vn 0.0060 -1.0000 -0.0078
vn 0.0061 -0.9996 -0.0282
vn 0.0058 -0.9999 0.0129
vn -0.0060 0.9999 0.0109
vn 0.9989 0.0450 -0.0124
vn -0.9987 -0.0457 -0.0203
vn 0.9990 -0.0425 -0.0118
vn 0.9990 -0.0431 -0.0135
vn 0.9992 -0.0398 -0.0050
vn -0.9991 0.0421 -0.0027
vn -0.9992 0.0398 0.0050
vn -0.9991 0.0427 -0.0046
vn 0.0060 1.0000 0.0074
vn 0.0059 1.0000 0.0038
vn -0.0060 -1.0000 -0.0077
vn -0.0061 -0.9996 -0.0282
vn -0.0060 -1.0000 -0.0078
vn -0.0058 -0.9999 0.0129
vn 0.0060 0.9999 0.0109
vn -0.9989 0.0450 -0.0124
vn 0.9987 -0.0457 -0.0203
vn 0.0242 -0.1024 0.9944
vn 0.0059 -0.0987 0.9951
vn -0.0057 -0.1019 0.9948
vn 0.0057 -0.1019 0.9948
vn -0.0167 -0.2415 -0.9703
vn -0.0052 -0.2578 -0.9662
vn 0.0076 -0.2420 -0.9703
vn -0.0076 -0.2420 -0.9703
usemtl Wood
s off
f 7//1 4//1 3//1 8//1
f 8//2 3//2 1//2 6//2
f 5//3 2//3 4//3 7//3
f 6//4 1//4 2//4 5//4
f 2//5 1//5 3//5 4//5
f 7//1 8//1 11//1 12//1
f 8//2 6//2 9//2 11//2
f 5//3 7//3 12//3 10//3
f 6//6 5//6 10//6 9//6
f 10//7 12//7 11//7 9//7
f 14//3 13//3 15//3 16//3
f 18//2 20//2 19//2 17//2
f 14//8 18//8 17//8 13//8
f 15//9 19//9 20//9 16//9
f 74//3 21//3 22//3 76//3
f 78//2 80//2 24//2 23//2
f 74//10 78//10 23//10 21//10
f 22//1 24//1 80//1 76//1
f 61//8 62//8 34//8 33//8
f 22//8 21//8 23//8 24//8
f 60//10 58//10 26//10 28//10
f 57//1 59//1 27//1 25//1
f 27//3 28//3 26//3 25//3
f 30//3 86//3 85//3 29//3
f 63//9 35//9 36//9 64//9
f 61//10 33//10 35//10 63//10
f 34//1 62//1 64//1 36//1
f 118//9 82//9 81//9 117//9
f 59//9 60//9 28//9 27//9
f 38//3 37//3 39//3 40//3
f 42//2 44//2 43//2 41//2
f 38//8 42//8 41//8 37//8
f 39//9 43//9 44//9 40//9
f 46//2 48//2 47//2 45//2
f 50//3 49//3 51//3 52//3
f 46//8 45//8 49//8 50//8
f 47//9 48//9 52//9 51//9
f 110//2 112//2 54//2 53//2
f 114//3 55//3 56//3 116//3
f 110//10 53//10 55//10 114//10
f 54//1 112//1 116//1 56//1
f 54//8 56//8 55//8 53//8
f 59//2 57//2 58//2 60//2
f 66//3 68//3 67//3 65//3
f 70//2 69//2 71//2 72//2
f 66//9 65//9 69//9 70//9
f 67//8 68//8 72//8 71//8
f 74//3 76//3 75//3 73//3
f 78//2 77//2 79//2 80//2
f 74//10 73//10 77//10 78//10
f 75//1 76//1 80//1 79//1
f 121//9 89//9 90//9 122//9
f 75//9 79//9 77//9 73//9
f 120//10 84//10 82//10 118//10
f 117//1 81//1 83//1 119//1
f 83//3 81//3 82//3 84//3
f 31//2 87//2 88//2 32//2
f 29//10 85//10 87//10 31//10
f 32//1 88//1 86//1 30//1
f 123//8 124//8 92//8 91//8
f 121//10 123//10 91//10 89//10
f 92//1 124//1 122//1 90//1
f 119//8 83//8 84//8 120//8
f 94//3 96//3 95//3 93//3
f 98//2 97//2 99//2 100//2
f 94//9 93//9 97//9 98//9
f 95//8 96//8 100//8 99//8
f 102//2 101//2 103//2 104//2
f 106//3 108//3 107//3 105//3
f 102//9 106//9 105//9 101//9
f 103//8 107//8 108//8 104//8
f 110//2 109//2 111//2 112//2
f 114//3 116//3 115//3 113//3
f 110//10 114//10 113//10 109//10
f 111//1 115//1 116//1 112//1
f 111//9 109//9 113//9 115//9
f 119//2 120//2 118//2 117//2
f 58//8 57//8 25//8 26//8
s 1
f 133//11 125//12 127//12 134//13
f 135//14 136//15 131//16 129//16
f 133//17 135//17 129//18 125//18
f 134//19 136//20 132//21 128//21
f 127//22 131//22 136//20 134//19
f 126//23 130//23 135//17 133//17
f 130//24 132//24 136//15 135//14
f 126//25 133//11 134//13 128//25
f 145//26 137//27 139//27 146//28
f 147//29 148//30 143//31 141//31
f 145//32 147//32 141//33 137//33
f 146//34 148//34 144//35 140//35
f 139//36 143//36 148//34 146//34
f 138//37 142//37 147//32 145//32
f 142//38 144//38 148//30 147//29
f 138//39 145//26 146//28 140//39
f 157//40 149//41 151//41 158//42
f 159//43 160//44 155//45 153//45
f 157//46 159//46 153//47 149//47
f 158//48 160//49 156//50 152//50
f 151//51 155//51 160//49 158//48
f 150//52 154//52 159//46 157//46
f 154//53 156//53 160//44 159//43
f 150//54 157//40 158//42 152//54
f 169//55 170//56 163//57 161//57
f 171//58 165//59 167//59 172//60
f 169//61 161//62 165//62 171//61
f 170//63 164//64 168//64 172//65
f 163//66 170//63 172//65 167//66
f 162//67 169//61 171//61 166//67
f 166//68 171//58 172//60 168//68
f 162//69 164//69 170//56 169//55
f 181//11 173//12 175//12 182//13
f 183//14 184//15 179//16 177//16
f 181//17 183//17 177//18 173//18
f 182//19 184//20 180//21 176//21
f 175//22 179//22 184//20 182//19
f 174//23 178//23 183//17 181//17
f 178//24 180//24 184//15 183//14
f 174//25 181//11 182//13 176//25
f 193//26 185//27 187//27 194//28
f 195//29 196//30 191//31 189//31
f 193//32 195//32 189//33 185//33
f 194//34 196//34 192//35 188//35
f 187//36 191//36 196//34 194//34
f 186//37 190//37 195//32 193//32
f 190//38 192//38 196//30 195//29
f 186//39 193//26 194//28 188//39
f 205//40 197//41 199//41 206//42
f 207//43 208//44 203//45 201//45
f 205//46 207//46 201//47 197//47
f 206//48 208//49 204//50 200//50
f 199//51 203//51 208//49 206//48
f 198//52 202//52 207//46 205//46
f 202//53 204//53 208//44 207//43
f 198//54 205//40 206//42 200//54
usemtl Wood_Light
f 128//70 132//70 130//70 126//70
f 140//71 144//71 142//71 138//71
f 152//72 156//72 154//72 150//72
f 164//73 162//73 166//73 168//73
f 176//70 180//70 178//70 174//70
f 188//71 192//71 190//71 186//71
f 200//72 204//72 202//72 198//72
f 127//74 125//74 129//74 131//74
f 139//75 137//75 141//75 143//75
f 151//76 149//76 153//76 155//76
f 163//77 167//77 165//77 161//77
f 175//74 173//74 177//74 179//74
f 187//75 185//75 189//75 191//75
f 199//76 197//76 201//76 203//76
