# Blender v3.0.0 OBJ File: 'Crate.blend'
# www.blender.org
mtllib Crate.mtl
o Crate_Cube.200
v -0.032818 0.078941 -0.033400
v -0.032573 0.084246 -0.033489
v -0.025029 0.078941 0.039116
v -0.025286 0.084246 0.039082
v -0.021732 0.078941 -0.034653
v -0.021475 0.084246 -0.034618
v -0.014188 0.084246 0.037952
v -0.013943 0.078941 0.037863
v 0.009608 0.078941 -0.035850
v 0.009608 0.084246 -0.035850
v 0.017911 0.078941 0.036605
v 0.017911 0.084246 0.036605
v 0.023200 0.078941 -0.037477
v 0.023200 0.084246 -0.037477
v 0.031503 0.084246 0.034978
v 0.031503 0.078941 0.034978
v 0.000266 0.084246 0.035849
v -0.007056 0.084246 -0.036718
v -0.012732 0.084246 0.037173
v -0.020053 0.084246 -0.035393
v 0.016189 0.084246 0.034402
v 0.008798 0.084246 -0.038158
v 0.001139 0.084246 0.035928
v -0.006252 0.084246 -0.036632
v -0.007056 0.080196 -0.036718
v 0.000266 0.080196 0.035849
v -0.020053 0.080196 -0.035393
v -0.012732 0.080196 0.037173
v 0.008798 0.080196 -0.038158
v 0.016189 0.080196 0.034402
v -0.006252 0.080196 -0.036632
v 0.001139 0.080196 0.035928
v 0.031944 0.005329 0.032169
v 0.032416 0.005263 0.039981
v 0.031172 0.080567 0.032244
v 0.032229 0.080505 0.039999
v 0.021490 0.005161 0.033195
v 0.021961 0.005222 0.041007
v 0.021775 0.080464 0.041025
v 0.020718 0.080398 0.033271
v -0.009778 0.005132 0.036265
v -0.009013 0.005132 0.044048
v -0.010463 0.080373 0.036332
v -0.009699 0.080373 0.044116
v -0.025638 0.005051 0.037822
v -0.024874 0.005051 0.045606
v -0.025559 0.080292 0.045673
v -0.026323 0.080292 0.037890
v 0.008505 0.079763 0.042328
v 0.008731 0.004521 0.042306
v 0.020008 0.079813 0.041199
v 0.020234 0.004570 0.041177
v -0.006968 0.079882 0.043847
v -0.006661 0.004640 0.043817
v 0.007507 0.079932 0.042426
v 0.007814 0.004690 0.042396
v 0.008061 0.004521 0.035480
v 0.007834 0.079763 0.035502
v 0.019564 0.004570 0.034350
v 0.019338 0.079813 0.034372
v -0.007331 0.004640 0.036991
v -0.007638 0.079882 0.037021
v 0.007143 0.004690 0.035570
v 0.006836 0.079932 0.035600
v -0.032367 0.001131 -0.033794
v -0.032125 0.006605 -0.033889
v -0.024191 0.001131 0.042703
v -0.024448 0.006605 0.042662
v -0.021336 0.001131 -0.035058
v -0.021079 0.006605 -0.035017
v -0.013402 0.006605 0.041533
v -0.013159 0.001131 0.041438
v 0.009876 0.001131 -0.036054
v 0.009876 0.006605 -0.036054
v 0.018144 0.001131 0.036105
v 0.018144 0.006605 0.036105
v 0.023401 0.001131 -0.037704
v 0.023401 0.006605 -0.037704
v 0.031669 0.006605 0.034455
v 0.031669 0.001131 0.034455
v 0.000976 0.006605 0.039369
v -0.006735 0.006605 -0.037178
v -0.011960 0.006605 0.040692
v -0.019671 0.006605 -0.035855
v 0.016826 0.006605 0.037941
v 0.009046 0.006605 -0.038599
v 0.001847 0.006605 0.039465
v -0.005933 0.006605 -0.037076
v -0.006735 0.001131 -0.037178
v 0.000976 0.001131 0.039369
v -0.019671 0.001131 -0.035855
v -0.011960 0.001131 0.040692
v 0.009046 0.001131 -0.038599
v 0.016826 0.001131 0.037941
v -0.005933 0.001131 -0.037076
v 0.001847 0.001131 0.039465
v 0.025497 0.006118 -0.046127
v 0.025670 0.006118 -0.041693
v 0.024810 0.078346 -0.046060
v 0.025503 0.078285 -0.041676
v 0.013991 0.006118 -0.044997
v 0.014163 0.006118 -0.040563
v 0.013997 0.078244 -0.040547
v 0.013305 0.078179 -0.044930
v -0.018299 0.005780 -0.041827
v -0.017866 0.005780 -0.037418
v -0.019519 0.080071 -0.041707
v -0.019086 0.080071 -0.037298
v -0.029920 0.005484 -0.040686
v -0.029488 0.005484 -0.036277
v -0.030708 0.079775 -0.036157
v -0.031141 0.079775 -0.040566
v -0.001050 0.077552 -0.039069
v -0.000849 0.006118 -0.039089
v 0.012425 0.077601 -0.040392
v 0.012626 0.006118 -0.040412
v -0.016726 0.077670 -0.037530
v -0.016481 0.006118 -0.037554
v -0.002725 0.077719 -0.038905
v -0.002480 0.006118 -0.038929
v -0.001187 0.006118 -0.042533
v -0.001388 0.077552 -0.042513
v 0.012288 0.006118 -0.043856
v 0.012087 0.077601 -0.043836
v -0.016819 0.006118 -0.040998
v -0.017064 0.077670 -0.040974
v -0.002818 0.006118 -0.042372
v -0.003063 0.077719 -0.042348
v -0.041072 0.078912 -0.023990
v -0.044822 0.078912 -0.023337
v -0.040999 0.004404 -0.023244
v -0.044805 0.004404 -0.023156
v -0.040081 0.078912 -0.013887
v -0.043830 0.078912 -0.013233
v -0.043812 0.004404 -0.013052
v -0.040007 0.004404 -0.013141
v -0.037210 0.078912 0.015347
v -0.040988 0.078912 0.015718
v -0.037080 0.004404 0.016672
v -0.040858 0.004404 0.017043
v -0.035705 0.078912 0.030674
v -0.039483 0.078912 0.031045
v -0.039353 0.004404 0.032370
v -0.035575 0.004404 0.031999
v -0.042553 0.004404 -0.000228
v -0.042575 0.078912 -0.000446
v -0.043645 0.004404 -0.011345
v -0.043666 0.078912 -0.011564
v -0.041085 0.004404 0.014726
v -0.041114 0.078912 0.014429
v -0.042459 0.004404 0.000737
v -0.042488 0.078912 0.000440
v -0.039529 0.078912 -0.000746
v -0.039507 0.004404 -0.000527
v -0.040620 0.078912 -0.011863
v -0.040599 0.004404 -0.011644
v -0.038068 0.078912 0.014130
v -0.038039 0.004404 0.014427
v -0.039442 0.078912 0.000141
v -0.039412 0.004404 0.000438
v 0.034727 0.005216 -0.033593
v 0.039860 0.005153 -0.033831
v 0.034795 0.079960 -0.032897
v 0.039877 0.079901 -0.033663
v 0.035873 0.005056 -0.021920
v 0.041007 0.005114 -0.022157
v 0.041023 0.079862 -0.021988
v 0.035941 0.079799 -0.021223
v 0.039128 0.005115 0.011240
v 0.044236 0.005115 0.010738
v 0.039250 0.079849 0.012478
v 0.044358 0.079849 0.011976
v 0.040535 0.004830 0.025562
v 0.045643 0.004830 0.025060
v 0.045764 0.079563 0.026299
v 0.040656 0.079563 0.026800
v 0.042522 0.079195 -0.006720
v 0.042502 0.004447 -0.006925
v 0.041180 0.079242 -0.020393
v 0.041160 0.004494 -0.020597
v 0.044165 0.079308 0.010011
v 0.044138 0.004561 0.009734
v 0.042611 0.079356 -0.005819
v 0.042583 0.004608 -0.006096
v 0.038602 0.004447 -0.006542
v 0.038623 0.079195 -0.006337
v 0.037260 0.004494 -0.020214
v 0.037280 0.079242 -0.020010
v 0.040238 0.004561 0.010117
v 0.040265 0.079308 0.010394
v 0.038684 0.004608 -0.005713
v 0.038711 0.079356 -0.005436
v -0.047506 0.001050 -0.039011
v -0.047506 0.083328 -0.039011
v 0.039011 0.001050 -0.047506
v 0.039011 0.083328 -0.047506
v -0.039011 0.001050 0.047506
v -0.039011 0.083328 0.047506
v 0.047506 0.001050 0.039011
v 0.047506 0.083328 0.039011
v -0.036974 0.010879 -0.042366
v -0.036974 0.073500 -0.042366
v 0.028028 0.073500 -0.048748
v 0.028028 0.010879 -0.048748
v 0.042366 0.010879 -0.036974
v 0.042366 0.073500 -0.036974
v 0.048748 0.073500 0.028028
v 0.048748 0.010879 0.028028
v 0.036974 0.010879 0.042366
v 0.036974 0.073500 0.042366
v -0.028028 0.073500 0.048748
v -0.028028 0.010879 0.048748
v -0.042366 0.010879 0.036974
v -0.042366 0.073500 0.036974
v -0.048748 0.073500 -0.028028
v -0.048748 0.010879 -0.028028
v 0.029310 -0.001050 -0.035692
v 0.035692 -0.001050 0.029310
v -0.029310 -0.001050 0.035692
v -0.035692 -0.001050 -0.029310
v 0.035692 0.085429 0.029310
v 0.029310 0.085429 -0.035692
v -0.035692 0.085429 -0.029310
v -0.029310 0.085429 0.035692
v -0.034100 0.071192 -0.039074
v -0.034100 0.013186 -0.039074
v 0.025850 0.071192 -0.044960
v 0.025850 0.013186 -0.044960
v 0.039074 0.071192 -0.034100
v 0.039074 0.013186 -0.034100
v 0.044960 0.071192 0.025850
v 0.044960 0.013186 0.025850
v 0.034100 0.071192 0.039074
v 0.034100 0.013186 0.039074
v -0.025850 0.071192 0.044960
v -0.025850 0.013186 0.044960
v -0.039074 0.071192 0.034101
v -0.039074 0.013186 0.034101
v -0.044960 0.071192 -0.025850
v -0.044960 0.013186 -0.025850
v 0.032918 0.002184 0.027032
v 0.027032 0.002184 -0.032918
v -0.027032 0.002184 0.032918
v -0.032918 0.002184 -0.027032
v 0.027032 0.082194 -0.032918
v 0.032918 0.082194 0.027032
v -0.032918 0.082194 -0.027032
v -0.027032 0.082194 0.032918
vn -0.9946 0.0000 0.1034
vn 0.9946 -0.0000 -0.1034
vn 0.9952 0.0000 -0.0977
vn 0.0000 1.0000 0.0000
vn -0.9935 0.0000 0.1138
vn 0.9935 0.0000 -0.1138
vn 0.9949 0.0000 -0.1004
vn 0.0977 -0.0166 0.9951
vn -0.9949 0.0000 0.1013
vn -0.0977 0.0166 -0.9951
vn -0.9949 0.0000 0.1004
vn 0.9949 0.0000 -0.1013
vn 0.9952 0.0064 -0.0977
vn -0.9952 -0.0064 0.0977
vn 0.0977 0.0000 0.9952
vn 0.9952 0.0092 -0.0977
vn -0.9952 -0.0092 0.0977
vn -0.9952 -0.0030 0.0977
vn 0.9952 0.0041 -0.0977
vn 0.9952 0.0030 -0.0977
vn -0.9952 -0.0041 0.0977
vn -0.9947 -0.0000 0.1030
vn 0.9947 0.0000 -0.1030
vn 0.0000 -1.0000 0.0000
vn 0.9950 0.0000 -0.1002
vn 0.0977 -0.0058 0.9952
vn -0.9949 0.0000 0.1011
vn -0.0977 0.0058 -0.9952
vn -0.9950 0.0000 0.1002
vn 0.9949 0.0000 -0.1011
vn 0.9952 0.0059 -0.0977
vn -0.9952 -0.0059 0.0977
vn -0.0977 -0.0000 -0.9952
vn 0.9951 0.0165 -0.0977
vn -0.9951 -0.0165 0.0977
vn -0.9952 -0.0028 0.0977
vn 0.9952 0.0034 -0.0977
vn 0.9952 0.0028 -0.0977
vn -0.9952 -0.0034 0.0977
vn -0.0976 -0.0062 -0.9952
vn 0.0978 0.0062 0.9952
vn 0.0977 -0.0037 0.9952
vn -0.9952 -0.0000 0.0977
vn -0.0977 0.0027 -0.9952
vn -0.0977 -0.0179 -0.9951
vn 0.0977 0.0179 0.9951
vn -0.0977 0.0037 -0.9952
vn 0.0977 -0.0027 0.9952
vn 0.0977 0.0030 0.9952
vn -0.0977 -0.0040 -0.9952
vn -0.0977 -0.0030 -0.9952
vn 0.0977 0.0040 0.9952
vn 0.8669 0.0000 0.4984
vn -0.2079 0.1090 -0.9721
vn -0.1997 0.1181 -0.9727
vn -0.1997 -0.1181 -0.9727
vn -0.2079 -0.1090 -0.9721
vn 0.0148 0.1090 -0.9939
vn 0.0067 0.1181 -0.9930
vn 0.0148 -0.1090 -0.9939
vn 0.0067 -0.1181 -0.9930
vn -0.0532 0.8390 -0.5416
vn 0.9721 0.1090 -0.2079
vn 0.9727 0.1181 -0.1997
vn 0.9727 -0.1181 -0.1997
vn 0.9721 -0.1090 -0.2079
vn 0.9939 0.1090 0.0148
vn 0.9930 0.1181 0.0067
vn 0.9939 -0.1090 0.0148
vn 0.9930 -0.1181 0.0067
vn -0.7830 0.6173 0.0769
vn 0.2079 0.1090 0.9721
vn 0.1997 0.1181 0.9727
vn 0.1997 -0.1181 0.9727
vn 0.2079 -0.1090 0.9721
vn -0.0148 0.1090 0.9939
vn -0.0067 0.1181 0.9930
vn -0.0148 -0.1090 0.9939
vn -0.0067 -0.1181 0.9930
vn -0.5416 -0.8389 0.0532
vn -0.9721 0.1090 0.2079
vn -0.9727 0.1181 0.1997
vn -0.9727 -0.1181 0.1997
vn -0.9721 -0.1090 0.2079
vn -0.9939 0.1090 -0.0148
vn -0.9930 0.1181 -0.0067
vn -0.9939 -0.1090 -0.0148
vn -0.9930 -0.1181 -0.0067
vn 0.4984 0.0000 -0.8669
vn 0.1052 -0.9907 0.0864
vn 0.0864 -0.9907 -0.1052
vn -0.0864 -0.9907 0.1052
vn -0.1052 -0.9907 -0.0864
vn -0.7830 -0.6173 0.0769
vn 0.0864 0.9907 -0.1052
vn 0.1052 0.9907 0.0864
vn -0.1052 0.9907 -0.0864
vn -0.0864 0.9907 0.1052
vn -0.0769 -0.6173 -0.7830
vn 0.5416 0.8390 -0.0532
vn -0.4984 0.0000 0.8669
vn 0.0769 0.6173 0.7830
vn 0.0532 0.8390 0.5416
vn 0.7830 -0.6173 -0.0769
vn -0.5416 0.8390 0.0532
vn 0.7830 0.6173 -0.0769
vn 0.0769 -0.6173 0.7830
vn -0.0769 0.6173 -0.7830
vn 0.7534 0.0000 -0.6575
vn 0.6575 0.0000 0.7534
vn -0.0532 -0.8389 -0.5416
vn -0.7534 0.0000 0.6575
vn 0.5416 -0.8389 -0.0532
vn -0.6575 0.0000 -0.7534
vn -0.8669 0.0000 -0.4984
vn 0.0532 -0.8389 0.5416
usemtl Wood_Light
s 1
f 3//1 4//1 2//1 1//1
f 8//2 5//2 6//2 7//2
f 172//3 175//3 174//3 170//3
f 4//4 7//4 6//4 2//4
f 11//5 12//5 10//5 9//5
f 16//6 13//6 14//6 15//6
f 12//4 15//4 14//4 10//4
f 18//4 20//4 19//4 17//4
f 22//4 24//4 23//4 21//4
f 17//7 26//7 25//7 18//7
f 176//8 173//8 174//8 175//8
f 24//9 31//9 32//9 23//9
f 171//10 172//10 170//10 169//10
f 20//11 27//11 28//11 19//11
f 21//12 30//12 29//12 22//12
f 35//13 36//13 34//13 33//13
f 40//14 37//14 38//14 39//14
f 36//15 39//15 38//15 34//15
f 43//16 44//16 42//16 41//16
f 48//17 45//17 46//17 47//17
f 44//15 47//15 46//15 42//15
f 50//15 52//15 51//15 49//15
f 54//15 56//15 55//15 53//15
f 49//18 58//18 57//18 50//18
f 56//19 63//19 64//19 55//19
f 52//20 59//20 60//20 51//20
f 53//21 62//21 61//21 54//21
f 67//22 68//22 66//22 65//22
f 72//23 69//23 70//23 71//23
f 65//24 69//24 72//24 67//24
f 164//3 167//3 166//3 162//3
f 75//5 76//5 74//5 73//5
f 80//6 77//6 78//6 79//6
f 73//24 77//24 80//24 75//24
f 89//24 90//24 92//24 91//24
f 93//24 94//24 96//24 95//24
f 81//25 90//25 89//25 82//25
f 168//26 165//26 166//26 167//26
f 88//27 95//27 96//27 87//27
f 163//28 164//28 162//28 161//28
f 84//29 91//29 92//29 83//29
f 85//30 94//30 93//30 86//30
f 99//31 100//31 98//31 97//31
f 104//32 101//32 102//32 103//32
f 97//33 101//33 104//33 99//33
f 107//34 108//34 106//34 105//34
f 112//35 109//35 110//35 111//35
f 105//33 109//33 112//33 107//33
f 121//33 122//33 124//33 123//33
f 125//33 126//33 128//33 127//33
f 113//36 122//36 121//36 114//36
f 120//37 127//37 128//37 119//37
f 116//38 123//38 124//38 115//38
f 117//39 126//39 125//39 118//39
f 131//40 132//40 130//40 129//40
f 136//41 133//41 134//41 135//41
f 181//42 190//42 189//42 182//42
f 132//43 135//43 134//43 130//43
f 180//44 187//44 188//44 179//44
f 139//45 140//45 138//45 137//45
f 144//46 141//46 142//46 143//46
f 184//47 191//47 192//47 183//47
f 140//43 143//43 142//43 138//43
f 177//48 186//48 185//48 178//48
f 146//43 148//43 147//43 145//43
f 150//43 152//43 151//43 149//43
f 145//49 154//49 153//49 146//49
f 152//50 159//50 160//50 151//50
f 148//51 155//51 156//51 147//51
f 182//3 184//3 183//3 181//3
f 149//52 158//52 157//52 150//52
f 178//3 180//3 179//3 177//3
usemtl Wood
f 246//4 245//4 247//4 248//4
f 242//24 241//24 243//24 244//24
f 238//43 237//43 239//43 240//43
f 234//15 233//15 235//15 236//15
f 230//3 229//3 231//3 232//3
f 226//33 225//33 227//33 228//33
f 211//53 212//53 236//53 235//53
f 194//54 202//55 201//56 193//57
f 196//58 203//59 202//55 194//54
f 195//60 204//61 203//59 196//58
f 193//57 201//56 204//61 195//60
f 204//62 201//62 226//62 228//62
f 196//63 206//64 205//65 195//66
f 200//67 207//68 206//64 196//63
f 199//69 208//70 207//68 200//67
f 195//66 205//65 208//70 199//69
f 221//71 222//71 245//71 246//71
f 200//72 210//73 209//74 199//75
f 198//76 211//77 210//73 200//72
f 197//78 212//79 211//77 198//76
f 199//75 209//74 212//79 197//78
f 214//80 215//80 239//80 237//80
f 198//81 214//82 213//83 197//84
f 194//85 215//86 214//82 198//81
f 193//87 216//88 215//86 194//85
f 197//84 213//83 216//88 193//87
f 207//89 208//89 232//89 231//89
f 199//90 218//90 217//91 195//91
f 197//92 219//92 218//90 199//90
f 193//93 220//93 219//92 197//92
f 195//91 217//91 220//93 193//93
f 217//94 218//94 241//94 242//94
f 196//95 222//95 221//96 200//96
f 194//97 223//97 222//95 196//95
f 198//98 224//98 223//97 194//97
f 200//96 221//96 224//98 198//98
f 218//99 219//99 243//99 241//99
f 208//100 205//100 230//100 232//100
f 215//101 216//101 240//101 239//101
f 222//102 223//102 247//102 245//102
f 212//103 209//103 234//103 236//103
f 219//104 220//104 244//104 243//104
f 216//105 213//105 238//105 240//105
f 223//106 224//106 248//106 247//106
f 220//107 217//107 242//107 244//107
f 224//108 221//108 246//108 248//108
f 201//109 202//109 225//109 226//109
f 205//110 206//110 229//110 230//110
f 202//111 203//111 227//111 225//111
f 209//112 210//112 233//112 234//112
f 206//113 207//113 231//113 229//113
f 213//114 214//114 237//114 238//114
f 203//115 204//115 228//115 227//115
f 210//116 211//116 235//116 233//116
