# Blender v3.0.0 OBJ File: 'Dock_FirstAge.blend'
# www.blender.org
mtllib Dock_FirstAge.mtl
o Dock_FirstAge_Cube.112
v -0.226778 0.075916 0.603157
v -0.225066 0.039336 0.603157
v -0.137176 0.076447 0.603157
v -0.135464 0.039867 0.603157
v -0.221433 0.078732 0.480020
v -0.220032 0.046602 0.491166
v -0.140572 0.079211 0.481090
v -0.139171 0.047082 0.492236
v -0.125477 0.077041 0.603157
v -0.123796 0.040475 0.603157
v -0.045167 0.078220 0.603157
v -0.043485 0.041654 0.603157
v -0.130371 0.079994 0.472166
v -0.128594 0.047874 0.483190
v -0.049531 0.081059 0.468715
v -0.047754 0.048938 0.479738
v -0.046286 0.080388 0.603157
v -0.044741 0.041036 0.603157
v 0.044652 0.080531 0.603157
v 0.046197 0.041178 0.603157
v -0.042596 0.080180 0.477919
v -0.041259 0.045951 0.491602
v 0.038266 0.080307 0.476939
v 0.039603 0.046077 0.490622
v 0.041009 0.075916 0.603157
v 0.042721 0.039336 0.603157
v 0.130611 0.076447 0.603157
v 0.132323 0.039867 0.603157
v 0.046354 0.078732 0.480020
v 0.047755 0.046602 0.491166
v 0.127214 0.079211 0.481090
v 0.128616 0.047082 0.492236
v 0.132794 0.075916 0.603157
v 0.134506 0.039336 0.603157
v 0.222396 0.076447 0.603157
v 0.224108 0.039867 0.603157
v 0.138138 0.078732 0.480020
v 0.139540 0.046602 0.491166
v 0.218999 0.079211 0.481090
v 0.220401 0.047082 0.492236
v 0.221228 -0.353902 0.609398
v 0.221228 -0.353902 0.556786
v 0.263146 -0.353902 0.609398
v 0.263146 -0.353902 0.556786
v 0.221228 0.111852 0.609398
v 0.221228 0.111852 0.556786
v 0.263146 0.111852 0.556786
v 0.263146 0.111852 0.609398
v 0.221228 -0.353902 0.234992
v 0.221228 -0.353902 0.182379
v 0.263146 -0.353902 0.234992
v 0.263146 -0.353902 0.182379
v 0.221228 0.111852 0.234992
v 0.221228 0.111852 0.182379
v 0.263146 0.111852 0.182379
v 0.263146 0.111852 0.234992
v -0.261176 -0.353902 0.609398
v -0.261176 -0.353902 0.556786
v -0.219258 -0.353902 0.609398
v -0.219258 -0.353902 0.556786
v -0.261176 0.111852 0.609398
v -0.261176 0.111852 0.556786
v -0.219258 0.111852 0.556786
v -0.219258 0.111852 0.609398
v -0.261176 -0.353902 0.234992
v -0.261176 -0.353902 0.182379
v -0.219258 -0.353902 0.234992
v -0.219258 -0.353902 0.182379
v -0.261176 0.111852 0.234992
v -0.261176 0.111852 0.182379
v -0.219258 0.111852 0.182379
v -0.219258 0.111852 0.234992
v 0.251923 -0.038314 0.583036
v 0.253635 -0.074894 0.583036
v 0.248526 -0.035550 0.474705
v 0.249928 -0.067679 0.484671
v 0.226681 -0.035550 0.474705
v 0.230078 -0.038314 0.583036
v 0.228083 -0.067679 0.484671
v 0.231790 -0.074894 0.583036
v -0.227846 -0.038314 0.583036
v -0.226134 -0.074894 0.583036
v -0.231243 -0.035550 0.474705
v -0.229841 -0.067679 0.484671
v -0.253087 -0.035550 0.474705
v -0.249691 -0.038314 0.583036
v -0.251686 -0.067679 0.484671
v -0.247979 -0.074894 0.583036
v 0.251923 0.086691 0.583036
v 0.253635 0.029845 0.583036
v 0.248526 0.090987 0.474705
v 0.249928 0.041057 0.484671
v 0.226681 0.090987 0.474705
v 0.230078 0.086691 0.583036
v 0.228083 0.041057 0.484671
v 0.231790 0.029845 0.583036
v -0.227846 0.086691 0.583036
v -0.226134 0.029845 0.583036
v -0.231243 0.090987 0.474705
v -0.229841 0.041057 0.484671
v -0.253087 0.090987 0.474705
v -0.249691 0.086691 0.583036
v -0.251686 0.041057 0.484671
v -0.247979 0.029845 0.583036
v -0.219510 0.079888 0.000000
v -0.226778 0.075916 -0.603157
v -0.218184 0.041754 0.000000
v -0.225066 0.039336 -0.603157
v -0.138649 0.080367 0.000000
v -0.137176 0.076447 -0.603157
v -0.137323 0.042233 0.000000
v -0.135464 0.039867 -0.603157
v -0.221433 0.078732 -0.480020
v -0.220032 0.046602 -0.491166
v -0.140572 0.079211 -0.481090
v -0.139171 0.047082 -0.492236
v -0.136498 0.081286 0.000000
v -0.125477 0.077041 -0.603157
v -0.134270 0.043154 0.000000
v -0.123796 0.040475 -0.603157
v -0.055658 0.082351 0.000000
v -0.045167 0.078220 -0.603157
v -0.053430 0.044218 0.000000
v -0.043485 0.041654 -0.603157
v -0.130371 0.079994 -0.472166
v -0.128594 0.047874 -0.483190
v -0.049531 0.081059 -0.468715
v -0.047754 0.048938 -0.479738
v -0.044337 0.080680 0.000000
v -0.046286 0.080388 -0.603157
v -0.042886 0.040434 0.000000
v -0.044741 0.041036 -0.603157
v 0.036525 0.080807 0.000000
v 0.044652 0.080531 -0.603157
v 0.037976 0.040561 0.000000
v 0.046197 0.041178 -0.603157
v -0.042596 0.080180 -0.477919
v -0.041259 0.045951 -0.491602
v 0.038266 0.080307 -0.476939
v 0.039603 0.046077 -0.490622
v 0.048277 0.079888 0.000000
v 0.041009 0.075916 -0.603157
v 0.049603 0.041754 0.000000
v 0.042721 0.039336 -0.603157
v 0.129138 0.080367 0.000000
v 0.130611 0.076447 -0.603157
v 0.130464 0.042233 0.000000
v 0.132323 0.039867 -0.603157
v 0.046354 0.078732 -0.480020
v 0.047755 0.046602 -0.491166
v 0.127214 0.079211 -0.481090
v 0.128616 0.047082 -0.492236
v 0.140062 0.079888 0.000000
v 0.132794 0.075916 -0.603157
v 0.141388 0.041754 0.000000
v 0.134506 0.039336 -0.603157
v 0.220923 0.080367 0.000000
v 0.222396 0.076447 -0.603157
v 0.222249 0.042233 0.000000
v 0.224108 0.039867 -0.603157
v 0.138138 0.078732 -0.480020
v 0.139540 0.046602 -0.491166
v 0.218999 0.079211 -0.481090
v 0.220401 0.047082 -0.492236
v 0.221228 -0.353902 -0.609398
v 0.221228 -0.353902 -0.556786
v 0.263146 -0.353902 -0.609398
v 0.263146 -0.353902 -0.556786
v 0.221228 0.111852 -0.609398
v 0.221228 0.111852 -0.556786
v 0.263146 0.111852 -0.556786
v 0.263146 0.111852 -0.609398
v 0.221228 -0.353902 -0.234992
v 0.221228 -0.353902 -0.182379
v 0.263146 -0.353902 -0.234992
v 0.263146 -0.353902 -0.182379
v 0.221228 0.111852 -0.234992
v 0.221228 0.111852 -0.182379
v 0.263146 0.111852 -0.182379
v 0.263146 0.111852 -0.234992
v -0.261176 -0.353902 -0.609398
v -0.261176 -0.353902 -0.556786
v -0.219258 -0.353902 -0.609398
v -0.219258 -0.353902 -0.556786
v -0.261176 0.111852 -0.609398
v -0.261176 0.111852 -0.556786
v -0.219258 0.111852 -0.556786
v -0.219258 0.111852 -0.609398
v -0.261176 -0.353902 -0.234992
v -0.261176 -0.353902 -0.182379
v -0.219258 -0.353902 -0.234992
v -0.219258 -0.353902 -0.182379
v -0.261176 0.111852 -0.234992
v -0.261176 0.111852 -0.182379
v -0.219258 0.111852 -0.182379
v -0.219258 0.111852 -0.234992
v 0.250450 -0.034394 0.000000
v 0.251923 -0.038314 -0.583036
v 0.251776 -0.072528 0.000000
v 0.253635 -0.074894 -0.583036
v 0.248526 -0.035550 -0.474705
v 0.249928 -0.067679 -0.484671
v 0.226681 -0.035550 -0.474705
v 0.230078 -0.038314 -0.583036
v 0.228083 -0.067679 -0.484671
v 0.231790 -0.074894 -0.583036
v 0.228605 -0.034394 0.000000
v 0.229931 -0.072528 0.000000
v -0.229319 -0.034394 0.000000
v -0.227846 -0.038314 -0.583036
v -0.227993 -0.072528 0.000000
v -0.226134 -0.074894 -0.583036
v -0.231243 -0.035550 -0.474705
v -0.229841 -0.067679 -0.484671
v -0.253087 -0.035550 -0.474705
v -0.249691 -0.038314 -0.583036
v -0.251686 -0.067679 -0.484671
v -0.247979 -0.074894 -0.583036
v -0.251164 -0.034394 0.000000
v -0.249838 -0.072528 0.000000
v 0.250450 0.092783 0.000000
v 0.251923 0.086691 -0.583036
v 0.251776 0.033522 0.000000
v 0.253635 0.029845 -0.583036
v 0.248526 0.090987 -0.474705
v 0.249928 0.041057 -0.484671
v 0.226681 0.090987 -0.474705
v 0.230078 0.086691 -0.583036
v 0.228083 0.041057 -0.484671
v 0.231790 0.029845 -0.583036
v 0.228605 0.092783 0.000000
v 0.229931 0.033522 0.000000
v -0.229319 0.092783 0.000000
v -0.227846 0.086691 -0.583036
v -0.227993 0.033522 0.000000
v -0.226134 0.029845 -0.583036
v -0.231243 0.090987 -0.474705
v -0.229841 0.041057 -0.484671
v -0.253087 0.090987 -0.474705
v -0.249691 0.086691 -0.583036
v -0.251686 0.041057 -0.484671
v -0.247979 0.029845 -0.583036
v -0.251164 0.092783 0.000000
v -0.249838 0.033522 0.000000
vn -0.9988 -0.0446 -0.0203
vn -0.9992 -0.0394 -0.0000
vn -0.9984 -0.0475 -0.0298
vn 0.9992 0.0399 -0.0089
vn 0.9991 0.0401 -0.0161
vn 0.9992 0.0394 0.0000
vn -0.0060 0.9999 0.0126
vn -0.0060 0.9999 0.0127
vn -0.0059 1.0000 -0.0000
vn 0.0061 -0.9996 -0.0277
vn 0.0061 -0.9996 -0.0281
vn 0.0063 -0.9979 -0.0648
vn 0.0059 -1.0000 0.0000
vn -0.0061 0.9997 0.0227
vn 0.9988 0.0406 -0.0287
vn -0.9975 -0.0527 -0.0463
vn -0.9985 -0.0508 0.0220
vn -0.9985 -0.0549 -0.0000
vn -0.9985 -0.0485 0.0273
vn 0.9985 0.0511 -0.0200
vn 0.9985 0.0490 -0.0242
vn 0.9985 0.0549 0.0000
vn -0.0133 0.9998 0.0127
vn -0.0133 0.9998 0.0125
vn -0.0131 0.9999 -0.0000
vn 0.0130 -0.9996 -0.0259
vn 0.0130 -0.9996 -0.0251
vn 0.0126 -0.9981 -0.0607
vn 0.0134 -0.9999 0.0000
vn -0.0134 0.9997 0.0223
vn 0.9985 0.0452 -0.0317
vn -0.9983 -0.0444 0.0367
vn -0.9992 -0.0398 -0.0095
vn -0.9993 -0.0367 0.0000
vn -0.9990 -0.0418 -0.0180
vn 0.9992 0.0339 -0.0226
vn 0.9989 0.0320 -0.0349
vn 0.9993 0.0367 0.0000
vn -0.0016 1.0000 -0.0003
vn -0.0016 1.0000 -0.0000
vn 0.0015 -0.9999 -0.0167
vn 0.0015 -0.9999 -0.0166
vn 0.0013 -0.9990 -0.0438
vn 0.0016 -1.0000 0.0000
vn -0.0016 1.0000 -0.0017
vn 0.9981 0.0291 -0.0537
vn -0.9985 -0.0449 -0.0311
vn 0.0000 0.0000 -1.0000
vn 1.0000 0.0000 0.0000
vn -1.0000 0.0000 0.0000
vn 0.0000 0.0000 1.0000
vn 0.9992 0.0398 -0.0106
vn 0.9990 0.0401 -0.0180
vn 0.9992 0.0393 0.0000
vn 0.9987 0.0406 -0.0324
vn -0.9992 -0.0398 0.0106
vn -0.9992 -0.0393 0.0000
vn -0.9990 -0.0401 0.0180
vn -0.9987 -0.0406 0.0324
vn -0.0000 -0.9973 -0.0732
vn -0.0000 -0.9995 -0.0311
vn -0.0000 -0.9995 -0.0320
vn 0.0000 1.0000 0.0000
vn 0.0000 0.9999 0.0139
vn 0.0000 0.9999 0.0141
vn 0.0000 0.9997 0.0255
vn 0.0000 -1.0000 -0.0000
vn -0.9991 -0.0398 0.0106
vn 0.9996 0.0257 -0.0118
vn 0.9995 0.0258 -0.0170
vn 0.9997 0.0253 0.0000
vn 0.9991 0.0261 -0.0324
vn -0.9996 -0.0257 0.0118
vn -0.9997 -0.0253 0.0000
vn -0.9995 -0.0258 0.0170
vn -0.9991 -0.0261 0.0324
vn -0.0000 -0.9936 -0.1133
vn -0.0000 -0.9988 -0.0483
vn -0.0000 -0.9988 -0.0496
vn 0.0000 0.9998 0.0215
vn 0.0000 0.9998 0.0219
vn 0.0000 0.9992 0.0396
vn -0.9988 -0.0446 0.0203
vn -0.9984 -0.0475 0.0298
vn 0.9992 0.0399 0.0089
vn 0.9991 0.0401 0.0161
vn -0.0060 0.9999 -0.0126
vn -0.0060 0.9999 -0.0127
vn 0.0061 -0.9996 0.0277
vn 0.0063 -0.9979 0.0648
vn 0.0061 -0.9996 0.0281
vn -0.0061 0.9997 -0.0227
vn 0.9988 0.0406 0.0287
vn -0.9975 -0.0527 0.0463
vn -0.9985 -0.0508 -0.0220
vn -0.9985 -0.0485 -0.0273
vn 0.9985 0.0511 0.0200
vn 0.9985 0.0490 0.0242
vn -0.0133 0.9998 -0.0127
vn -0.0133 0.9998 -0.0125
vn 0.0130 -0.9996 0.0259
vn 0.0126 -0.9981 0.0607
vn 0.0130 -0.9996 0.0251
vn -0.0134 0.9997 -0.0223
vn 0.9985 0.0452 0.0317
vn -0.9983 -0.0444 -0.0367
vn -0.9992 -0.0398 0.0095
vn -0.9990 -0.0418 0.0180
vn 0.9992 0.0339 0.0226
vn 0.9989 0.0320 0.0349
vn -0.0016 1.0000 0.0003
vn 0.0015 -0.9999 0.0167
vn 0.0013 -0.9990 0.0438
vn 0.0015 -0.9999 0.0166
vn -0.0016 1.0000 0.0017
vn 0.9981 0.0291 0.0537
vn -0.9985 -0.0449 0.0311
vn 0.9992 0.0398 0.0106
vn 0.9990 0.0401 0.0180
vn 0.9987 0.0406 0.0324
vn -0.9992 -0.0398 -0.0106
vn -0.9990 -0.0401 -0.0180
vn -0.9987 -0.0406 -0.0324
vn -0.0000 -0.9973 0.0732
vn -0.0000 -0.9995 0.0320
vn -0.0000 -0.9995 0.0311
vn 0.0000 0.9999 -0.0141
vn 0.0000 0.9999 -0.0139
vn 0.0000 0.9997 -0.0255
vn 0.9996 0.0257 0.0118
vn 0.9995 0.0258 0.0170
vn 0.9991 0.0261 0.0324
vn -0.9996 -0.0257 -0.0118
vn -0.9995 -0.0258 -0.0170
vn -0.9991 -0.0261 -0.0324
vn -0.0000 -0.9936 0.1133
vn -0.0000 -0.9988 0.0496
vn -0.0000 -0.9988 0.0483
vn 0.0000 0.9998 -0.0219
vn 0.0000 0.9998 -0.0215
vn 0.0000 0.9992 -0.0396
usemtl Wood
s 1
f 5//1 105//2 107//2 6//3
f 7//4 8//5 111//6 109//6
f 5//7 7//8 109//9 105//9
f 6//10 8//11 4//12 2//12
f 107//13 111//13 8//11 6//10
f 1//14 3//14 7//8 5//7
f 3//15 4//15 8//5 7//4
f 1//16 5//1 6//3 2//16
f 13//17 117//18 119//18 14//19
f 15//20 16//21 123//22 121//22
f 13//23 15//24 121//25 117//25
f 14//26 16//27 12//28 10//28
f 119//29 123//29 16//27 14//26
f 9//30 11//30 15//24 13//23
f 11//31 12//31 16//21 15//20
f 9//32 13//17 14//19 10//32
f 21//33 129//34 131//34 22//35
f 23//36 24//37 135//38 133//38
f 21//39 23//39 133//40 129//40
f 22//41 24//42 20//43 18//43
f 131//44 135//44 24//42 22//41
f 17//45 19//45 23//39 21//39
f 19//46 20//46 24//37 23//36
f 17//47 21//33 22//35 18//47
f 29//1 141//2 143//2 30//3
f 31//4 32//5 147//6 145//6
f 29//7 31//8 145//9 141//9
f 30//10 32//11 28//12 26//12
f 143//13 147//13 32//11 30//10
f 25//14 27//14 31//8 29//7
f 27//15 28//15 32//5 31//4
f 25//16 29//1 30//3 26//16
f 37//1 153//2 155//2 38//3
f 39//4 40//5 159//6 157//6
f 37//7 39//8 157//9 153//9
f 38//10 40//11 36//12 34//12
f 155//13 159//13 40//11 38//10
f 33//14 35//14 39//8 37//7
f 35//15 36//15 40//5 39//4
f 33//16 37//1 38//3 34//16
f 44//48 42//48 46//48 47//48
f 43//49 44//49 47//49 48//49
f 42//50 41//50 45//50 46//50
f 41//51 43//51 48//51 45//51
f 52//48 50//48 54//48 55//48
f 51//49 52//49 55//49 56//49
f 50//50 49//50 53//50 54//50
f 49//51 51//51 56//51 53//51
f 60//48 58//48 62//48 63//48
f 59//49 60//49 63//49 64//49
f 58//50 57//50 61//50 62//50
f 57//51 59//51 64//51 61//51
f 68//48 66//48 70//48 71//48
f 67//49 68//49 71//49 72//49
f 66//50 65//50 69//50 70//50
f 65//51 67//51 72//51 69//51
f 75//52 76//53 199//54 197//54
f 73//55 74//55 76//53 75//52
f 77//56 207//57 208//57 79//58
f 78//59 77//56 79//58 80//59
f 81//55 82//55 84//53 83//52
f 74//60 80//60 79//61 76//62
f 197//63 207//63 77//64 75//65
f 83//52 84//53 211//54 209//54
f 75//65 77//64 78//66 73//66
f 76//62 79//61 208//67 199//67
f 85//68 219//57 220//57 87//58
f 86//59 85//68 87//58 88//59
f 82//60 88//60 87//61 84//62
f 209//63 219//63 85//64 83//65
f 83//65 85//64 86//66 81//66
f 84//62 87//61 220//67 211//67
f 91//69 92//70 223//71 221//71
f 89//72 90//72 92//70 91//69
f 93//73 231//74 232//74 95//75
f 94//76 93//73 95//75 96//76
f 97//72 98//72 100//70 99//69
f 90//77 96//77 95//78 92//79
f 221//63 231//63 93//80 91//81
f 99//69 100//70 235//71 233//71
f 91//81 93//80 94//82 89//82
f 92//79 95//78 232//67 223//67
f 101//73 243//74 244//74 103//75
f 102//76 101//73 103//75 104//76
f 98//77 104//77 103//78 100//79
f 233//63 243//63 101//80 99//81
f 99//81 101//80 102//82 97//82
f 100//79 103//78 244//67 235//67
f 113//83 114//84 107//2 105//2
f 115//85 109//6 111//6 116//86
f 113//87 105//9 109//9 115//88
f 114//89 108//90 112//90 116//91
f 107//13 114//89 116//91 111//13
f 106//92 113//87 115//88 110//92
f 110//93 115//85 116//86 112//93
f 106//94 108//94 114//84 113//83
f 125//95 126//96 119//18 117//18
f 127//97 121//22 123//22 128//98
f 125//99 117//25 121//25 127//100
f 126//101 120//102 124//102 128//103
f 119//29 126//101 128//103 123//29
f 118//104 125//99 127//100 122//104
f 122//105 127//97 128//98 124//105
f 118//106 120//106 126//96 125//95
f 137//107 138//108 131//34 129//34
f 139//109 133//38 135//38 140//110
f 137//111 129//40 133//40 139//111
f 138//112 132//113 136//113 140//114
f 131//44 138//112 140//114 135//44
f 130//115 137//111 139//111 134//115
f 134//116 139//109 140//110 136//116
f 130//117 132//117 138//108 137//107
f 149//83 150//84 143//2 141//2
f 151//85 145//6 147//6 152//86
f 149//87 141//9 145//9 151//88
f 150//89 144//90 148//90 152//91
f 143//13 150//89 152//91 147//13
f 142//92 149//87 151//88 146//92
f 146//93 151//85 152//86 148//93
f 142//94 144//94 150//84 149//83
f 161//83 162//84 155//2 153//2
f 163//85 157//6 159//6 164//86
f 161//87 153//9 157//9 163//88
f 162//89 156//90 160//90 164//91
f 155//13 162//89 164//91 159//13
f 154//92 161//87 163//88 158//92
f 158//93 163//85 164//86 160//93
f 154//94 156//94 162//84 161//83
f 168//51 171//51 170//51 166//51
f 167//49 172//49 171//49 168//49
f 166//50 170//50 169//50 165//50
f 165//48 169//48 172//48 167//48
f 176//51 179//51 178//51 174//51
f 175//49 180//49 179//49 176//49
f 174//50 178//50 177//50 173//50
f 173//48 177//48 180//48 175//48
f 184//51 187//51 186//51 182//51
f 183//49 188//49 187//49 184//49
f 182//50 186//50 185//50 181//50
f 181//48 185//48 188//48 183//48
f 192//51 195//51 194//51 190//51
f 191//49 196//49 195//49 192//49
f 190//50 194//50 193//50 189//50
f 189//48 193//48 196//48 191//48
f 201//118 197//54 199//54 202//119
f 198//120 201//118 202//119 200//120
f 203//121 205//122 208//57 207//57
f 204//123 206//123 205//122 203//121
f 210//120 213//118 214//119 212//120
f 200//124 202//125 205//126 206//124
f 197//63 201//127 203//128 207//63
f 213//118 209//54 211//54 214//119
f 201//127 198//129 204//129 203//128
f 202//125 199//67 208//67 205//126
f 215//121 217//122 220//57 219//57
f 216//123 218//123 217//122 215//121
f 212//124 214//125 217//126 218//124
f 209//63 213//127 215//128 219//63
f 213//127 210//129 216//129 215//128
f 214//125 211//67 220//67 217//126
f 225//130 221//71 223//71 226//131
f 222//132 225//130 226//131 224//132
f 227//133 229//134 232//74 231//74
f 228//135 230//135 229//134 227//133
f 234//132 237//130 238//131 236//132
f 224//136 226//137 229//138 230//136
f 221//63 225//139 227//140 231//63
f 237//130 233//71 235//71 238//131
f 225//139 222//141 228//141 227//140
f 226//137 223//67 232//67 229//138
f 239//133 241//134 244//74 243//74
f 240//135 242//135 241//134 239//133
f 236//136 238//137 241//138 242//136
f 233//63 237//139 239//140 243//63
f 237//139 234//141 240//141 239//140
f 238//137 235//67 244//67 241//138
usemtl Wood_Light
f 2//51 4//51 3//51 1//51
f 10//51 12//51 11//51 9//51
f 18//51 20//51 19//51 17//51
f 26//51 28//51 27//51 25//51
f 34//51 36//51 35//51 33//51
f 45//63 48//63 47//63 46//63
f 53//63 56//63 55//63 54//63
f 61//63 64//63 63//63 62//63
f 69//63 72//63 71//63 70//63
f 108//48 106//48 110//48 112//48
f 120//48 118//48 122//48 124//48
f 132//48 130//48 134//48 136//48
f 144//48 142//48 146//48 148//48
f 156//48 154//48 158//48 160//48
f 169//63 170//63 171//63 172//63
f 177//63 178//63 179//63 180//63
f 185//63 186//63 187//63 188//63
f 193//63 194//63 195//63 196//63
