# Blender v3.0.0 OBJ File: 'Houses_FirstAge_1_Level1.blend'
# www.blender.org
mtllib Houses_FirstAge_1_Level1.mtl
o Houses_FirstAge_1_Level1_Cube.030
v 0.032071 0.766077 0.424483
v 0.032071 0.766077 -0.336875
v 0.032071 0.703840 0.424483
v 0.032071 0.703840 -0.336875
v -0.032973 0.766077 0.424483
v -0.032973 0.766077 -0.336875
v -0.032973 0.703840 0.424483
v -0.032973 0.703840 -0.336875
v 0.032071 0.746147 -0.000982
v 0.032071 0.683910 -0.000982
v -0.032973 0.746147 -0.000982
v -0.032973 0.683910 -0.000982
v 0.376502 0.303310 0.257018
v 0.346284 0.282376 0.255336
v 0.376202 0.305472 0.176707
v 0.345984 0.284537 0.175026
v 0.217620 0.487487 0.261911
v 0.196682 0.462560 0.260135
v 0.217349 0.489438 0.181071
v 0.196412 0.464510 0.179295
v 0.388681 0.294253 0.177826
v 0.356278 0.271585 0.176281
v 0.388444 0.294747 0.086888
v 0.356042 0.272079 0.085344
v 0.219558 0.485512 0.174137
v 0.197851 0.458243 0.172800
v 0.219348 0.485952 0.093275
v 0.197641 0.458683 0.091938
v 0.378065 0.299760 0.090531
v 0.347880 0.278765 0.088820
v 0.378839 0.299674 0.000929
v 0.348653 0.278679 -0.000782
v 0.219115 0.483804 0.085187
v 0.198210 0.458826 0.083785
v 0.219813 0.483727 0.004326
v 0.198908 0.458749 0.002925
v 0.388681 0.294253 -0.172794
v 0.356278 0.271585 -0.171249
v 0.388444 0.294747 -0.086889
v 0.356042 0.272079 -0.085344
v 0.219558 0.485512 -0.174137
v 0.197851 0.458244 -0.172800
v 0.219348 0.485952 -0.093275
v 0.197641 0.458683 -0.091938
v 0.378065 0.299760 -0.090532
v 0.347880 0.278765 -0.088820
v 0.378839 0.299674 -0.000930
v 0.348653 0.278679 0.000782
v 0.219115 0.483804 -0.085187
v 0.198210 0.458826 -0.083786
v 0.219813 0.483727 -0.004326
v 0.198908 0.458749 -0.002925
v 0.000000 0.743398 0.268039
v -0.376502 0.303310 0.257018
v 0.000000 0.698433 0.265811
v -0.346284 0.282376 0.255337
v 0.000000 0.745163 0.187199
v -0.376202 0.305472 0.176707
v 0.000000 0.700199 0.184971
v -0.345984 0.284537 0.175026
v -0.217619 0.487487 0.261911
v -0.196682 0.462560 0.260135
v -0.217349 0.489438 0.181072
v -0.196412 0.464510 0.179295
v 0.000000 0.741213 0.175878
v -0.388681 0.294253 0.177826
v 0.000000 0.693777 0.174427
v -0.356278 0.271585 0.176281
v 0.000000 0.741564 0.095015
v -0.388444 0.294747 0.086889
v 0.000000 0.694128 0.093564
v -0.356042 0.272079 0.085344
v -0.219558 0.485512 0.174137
v -0.197851 0.458243 0.172800
v -0.219348 0.485952 0.093275
v -0.197641 0.458683 0.091938
v 0.000000 0.740285 0.083263
v -0.378065 0.299760 0.090531
v 0.000000 0.695285 0.081937
v -0.347880 0.278765 0.088820
v 0.000000 0.740431 0.002403
v -0.378839 0.299674 0.000930
v 0.000000 0.695431 0.001077
v -0.348653 0.278679 -0.000782
v -0.219115 0.483804 0.085187
v -0.198210 0.458826 0.083786
v -0.219813 0.483727 0.004326
v -0.198908 0.458749 0.002925
v -0.000000 0.741213 -0.175878
v -0.388681 0.294253 -0.172794
v -0.000000 0.693777 -0.174427
v -0.356278 0.271585 -0.171249
v -0.000000 0.741564 -0.095015
v -0.388444 0.294747 -0.086889
v -0.000000 0.694128 -0.093564
v -0.356042 0.272079 -0.085344
v -0.219558 0.485512 -0.174137
v -0.197851 0.458244 -0.172800
v -0.219348 0.485952 -0.093275
v -0.197641 0.458683 -0.091938
v -0.000000 0.740285 -0.083263
v -0.378065 0.299760 -0.090531
v -0.000000 0.695285 -0.081937
v -0.347880 0.278765 -0.088820
v -0.000000 0.740431 -0.002403
v -0.378839 0.299674 -0.000929
v -0.000000 0.695431 -0.001077
v -0.348653 0.278679 0.000782
v -0.219115 0.483804 -0.085187
v -0.198210 0.458826 -0.083785
v -0.219813 0.483727 -0.004326
v -0.198908 0.458749 -0.002925
v -0.434654 0.257959 -0.239933
v -0.388393 0.208053 -0.238404
v -0.434654 0.257959 -0.180816
v -0.388393 0.208053 -0.179286
v -0.313390 0.363031 -0.209246
v -0.313390 0.047514 -0.209246
v -0.274385 0.363031 -0.209246
v -0.274385 0.047514 -0.209246
v -0.313390 0.363031 -0.167435
v -0.313390 0.047514 -0.167435
v -0.274385 0.363031 -0.167435
v -0.274385 0.047514 -0.167435
v -0.311459 0.321725 -0.224184
v -0.311459 0.360729 -0.224184
v -0.311459 0.321725 -0.163134
v -0.311459 0.360729 -0.163134
v -0.309534 0.145829 -0.173984
v -0.309534 0.184834 -0.173984
v -0.277605 0.145829 -0.173984
v -0.277605 0.184834 -0.173984
v -0.215799 0.499698 -0.234291
v -0.196918 0.436857 -0.233046
v -0.215799 0.499698 -0.186173
v -0.196918 0.436857 -0.184928
v -0.434655 0.257959 0.325153
v -0.388393 0.208053 0.323623
v -0.434655 0.257959 0.266035
v -0.388393 0.208053 0.264506
v -0.313390 0.363031 0.294465
v -0.313390 0.047514 0.294465
v -0.274385 0.363031 0.294465
v -0.274385 0.047514 0.294465
v -0.313390 0.363031 0.252654
v -0.313390 0.047514 0.252654
v -0.274385 0.363031 0.252654
v -0.274385 0.047514 0.252654
v -0.311459 0.321725 0.309404
v -0.311459 0.360729 0.309404
v -0.311459 0.321725 0.248354
v -0.311459 0.360729 0.248354
v -0.309534 0.145829 -0.000000
v -0.309534 0.145829 0.259203
v -0.309534 0.184834 -0.000000
v -0.309534 0.184834 0.259203
v -0.277605 0.145829 -0.000000
v -0.277605 0.145829 0.259203
v -0.277605 0.184834 -0.000000
v -0.277605 0.184834 0.259203
v -0.215799 0.499698 0.319511
v -0.196918 0.436857 0.318265
v -0.215799 0.499698 0.271393
v -0.196918 0.436857 0.270148
v 0.000000 0.747515 -0.234291
v 0.434655 0.257959 -0.239933
v 0.000000 0.662322 -0.233046
v 0.388393 0.208053 -0.238404
v 0.000000 0.747515 -0.186173
v 0.434655 0.257959 -0.180816
v 0.000000 0.662322 -0.184928
v 0.388393 0.208053 -0.179286
v 0.313390 0.363031 -0.209246
v 0.313390 0.047514 -0.209246
v 0.274385 0.363031 -0.209246
v 0.274385 0.047514 -0.209246
v 0.313390 0.363031 -0.167435
v 0.313390 0.047514 -0.167435
v 0.274385 0.363031 -0.167435
v 0.274385 0.047514 -0.167435
v 0.311459 0.321725 -0.224184
v 0.000000 0.321725 -0.224184
v 0.311459 0.360729 -0.224184
v 0.000000 0.360729 -0.224184
v 0.311459 0.321725 -0.163134
v 0.000000 0.321725 -0.163134
v 0.311459 0.360729 -0.163134
v 0.000000 0.360729 -0.163134
v 0.309534 0.145829 -0.173984
v 0.309534 0.184834 -0.173984
v 0.277605 0.145829 -0.173984
v 0.277605 0.184834 -0.173984
v 0.215799 0.499698 -0.234291
v 0.196918 0.436857 -0.233046
v 0.215799 0.499698 -0.186173
v 0.196918 0.436857 -0.184928
v -0.000000 0.747515 0.319511
v 0.434654 0.257959 0.325153
v -0.000000 0.662322 0.318265
v 0.388393 0.208053 0.323623
v -0.000000 0.747515 0.271393
v 0.434654 0.257959 0.266035
v -0.000000 0.662322 0.270148
v 0.388393 0.208053 0.264506
v 0.313390 0.363031 0.294465
v 0.313390 0.047514 0.294465
v 0.274385 0.363031 0.294465
v 0.274385 0.047514 0.294465
v 0.313390 0.363031 0.252654
v 0.313390 0.047514 0.252654
v 0.274385 0.363031 0.252654
v 0.274385 0.047514 0.252654
v 0.311459 0.321725 0.309404
v -0.000000 0.321725 0.309404
v 0.311459 0.360729 0.309404
v -0.000000 0.360729 0.309404
v 0.311459 0.321725 0.248354
v -0.000000 0.321725 0.248354
v 0.311459 0.360729 0.248354
v -0.000000 0.360729 0.248354
v 0.309534 0.145829 0.000000
v 0.309534 0.145829 0.259203
v 0.309534 0.184834 0.000000
v 0.309534 0.184834 0.259203
v 0.277605 0.145829 0.000000
v 0.277605 0.145829 0.259203
v 0.277605 0.184834 0.000000
v 0.277605 0.184834 0.259203
v 0.215799 0.499698 0.319511
v 0.196918 0.436857 0.318265
v 0.215799 0.499698 0.271393
v 0.196918 0.436857 0.270148
v -0.315575 0.081249 -0.213614
v -0.315575 0.081249 0.298833
v -0.318942 0.001531 -0.218541
v -0.318942 0.001531 0.303760
v 0.315575 0.081249 -0.213614
v 0.315575 0.081249 0.298833
v 0.318942 0.001531 -0.218541
v 0.318942 0.001531 0.303760
v 0.000000 0.081249 -0.213614
v -0.000000 0.081249 0.298833
v 0.000000 0.001531 -0.218541
v -0.000000 0.001531 0.303760
vn 1.0000 0.0000 0.0000
vn -1.0000 0.0000 -0.0000
vn 0.0000 0.0000 -1.0000
vn 0.0000 0.9989 -0.0468
vn 0.0000 0.0000 1.0000
vn 0.0000 -0.9982 -0.0592
vn 0.0000 -0.9989 0.0468
vn 0.0000 0.9982 0.0592
vn -0.0291 -0.0485 0.9984
vn 0.0291 0.0485 -0.9984
vn 0.5702 -0.8211 -0.0242
vn 0.7620 0.6475 0.0136
vn -0.7693 -0.6387 -0.0136
vn -0.7682 -0.6401 -0.0134
vn 0.7571 0.6531 0.0140
vn 0.0263 0.0460 -0.9986
vn -0.0248 -0.0476 0.9986
vn -0.0267 -0.0295 0.9992
vn 0.0267 0.0295 -0.9992
vn 0.5734 -0.8192 -0.0059
vn 0.7588 0.6513 0.0022
vn -0.7624 -0.6471 -0.0015
vn -0.7658 -0.6431 -0.0021
vn 0.7491 0.6624 0.0017
vn 0.0120 0.0447 -0.9989
vn -0.0393 -0.0151 0.9991
vn -0.0407 -0.0268 0.9988
vn 0.0406 0.0268 -0.9988
vn 0.5708 -0.8211 0.0057
vn 0.7599 0.6500 0.0036
vn -0.7689 -0.6393 -0.0060
vn -0.7659 -0.6429 -0.0036
vn 0.7567 0.6537 0.0059
vn 0.0246 0.0403 -0.9989
vn -0.0491 -0.0131 0.9987
vn -0.0267 -0.0295 -0.9992
vn 0.0267 0.0295 0.9992
vn 0.5734 -0.8192 0.0063
vn 0.7588 0.6513 -0.0022
vn -0.7624 -0.6471 0.0016
vn -0.7658 -0.6431 0.0021
vn 0.7491 0.6624 -0.0017
vn 0.0120 0.0447 0.9989
vn -0.0256 -0.0299 -0.9992
vn -0.0407 -0.0268 -0.9988
vn 0.0406 0.0268 0.9988
vn 0.5708 -0.8211 -0.0057
vn 0.7599 0.6500 -0.0036
vn -0.7689 -0.6393 0.0060
vn -0.7659 -0.6429 0.0036
vn 0.7567 0.6537 -0.0059
vn 0.0246 0.0403 0.9989
vn -0.0491 -0.0131 -0.9987
vn 0.0291 -0.0485 0.9984
vn -0.0291 0.0485 -0.9984
vn -0.5702 -0.8211 -0.0242
vn -0.7620 0.6475 0.0136
vn 0.7693 -0.6387 -0.0136
vn 0.7682 -0.6401 -0.0134
vn -0.7571 0.6531 0.0140
vn -0.0263 0.0460 -0.9986
vn 0.0248 -0.0476 0.9986
vn 0.0267 -0.0295 0.9992
vn -0.0267 0.0295 -0.9992
vn -0.5734 -0.8192 -0.0059
vn -0.7588 0.6513 0.0022
vn 0.7624 -0.6471 -0.0015
vn 0.7658 -0.6431 -0.0022
vn -0.7491 0.6624 0.0017
vn -0.0120 0.0447 -0.9989
vn 0.0393 -0.0151 0.9991
vn 0.0407 -0.0268 0.9988
vn -0.0406 0.0268 -0.9988
vn -0.5708 -0.8211 0.0057
vn -0.7599 0.6500 0.0036
vn 0.7689 -0.6393 -0.0060
vn 0.7659 -0.6429 -0.0036
vn -0.7567 0.6537 0.0059
vn -0.0246 0.0403 -0.9989
vn 0.0491 -0.0131 0.9987
vn 0.0267 -0.0295 -0.9992
vn -0.0267 0.0295 0.9992
vn -0.5734 -0.8192 0.0063
vn -0.7588 0.6513 -0.0022
vn 0.7624 -0.6471 0.0016
vn 0.7658 -0.6431 0.0021
vn -0.7491 0.6624 -0.0017
vn -0.0120 0.0447 0.9989
vn 0.0256 -0.0299 -0.9992
vn 0.0407 -0.0268 -0.9988
vn -0.0406 0.0268 0.9988
vn -0.5708 -0.8211 -0.0057
vn -0.7599 0.6500 -0.0036
vn 0.7689 -0.6393 0.0060
vn 0.7659 -0.6429 0.0036
vn -0.7567 0.6537 -0.0059
vn -0.0246 0.0403 0.9989
vn 0.0491 -0.0131 -0.9987
vn 0.0168 -0.0147 -0.9998
vn -0.0168 0.0147 0.9998
vn -0.7334 -0.6798 0.0000
vn -0.7541 0.6567 -0.0000
vn 0.7669 -0.6418 0.0000
vn 0.0000 -1.0000 0.0000
vn 0.0000 1.0000 0.0000
vn 0.7532 -0.6578 0.0000
vn -0.7413 0.6711 0.0000
vn -0.0009 0.0241 0.9997
vn 0.0331 -0.0055 -0.9994
vn 0.0168 -0.0147 0.9998
vn -0.0168 0.0147 -0.9998
vn -0.0009 0.0241 -0.9997
vn 0.0331 -0.0055 0.9994
vn -0.0168 -0.0147 -0.9998
vn 0.0168 0.0147 0.9998
vn 0.7334 -0.6798 0.0000
vn 0.7541 0.6567 0.0000
vn -0.7669 -0.6418 0.0000
vn -0.7532 -0.6578 0.0000
vn 0.7413 0.6711 0.0000
vn 0.0009 0.0241 0.9997
vn -0.0331 -0.0055 -0.9994
vn -0.0168 -0.0147 0.9998
vn 0.0168 0.0147 -0.9998
vn 0.0009 0.0241 -0.9997
vn -0.0331 -0.0055 0.9994
vn 0.0000 0.0617 0.9981
vn -0.9991 0.0422 -0.0000
vn 0.0000 0.0617 -0.9981
vn 0.9991 0.0422 0.0000
usemtl Wood
s off
f 9//1 1//1 3//1 10//1
f 11//2 12//2 7//2 5//2
f 4//3 8//3 6//3 2//3
f 9//4 11//4 5//4 1//4
f 1//5 5//5 7//5 3//5
f 10//6 12//6 8//6 4//6
f 3//7 7//7 12//7 10//7
f 2//8 6//8 11//8 9//8
f 6//2 8//2 12//2 11//2
f 2//1 9//1 10//1 4//1
f 17//9 53//9 55//9 18//9
f 19//10 20//10 59//10 57//10
f 14//11 16//11 15//11 13//11
f 17//12 19//12 57//12 53//12
f 18//13 20//13 16//13 14//13
f 55//14 59//14 20//14 18//14
f 13//15 15//15 19//15 17//15
f 15//16 16//16 20//16 19//16
f 13//17 17//17 18//17 14//17
f 25//18 65//18 67//18 26//18
f 27//19 28//19 71//19 69//19
f 22//20 24//20 23//20 21//20
f 25//21 27//21 69//21 65//21
f 26//22 28//22 24//22 22//22
f 67//23 71//23 28//23 26//23
f 21//24 23//24 27//24 25//24
f 23//25 24//25 28//25 27//25
f 21//26 25//26 26//26 22//26
f 33//27 77//27 79//27 34//27
f 35//28 36//28 83//28 81//28
f 30//29 32//29 31//29 29//29
f 33//30 35//30 81//30 77//30
f 34//31 36//31 32//31 30//31
f 79//32 83//32 36//32 34//32
f 29//33 31//33 35//33 33//33
f 31//34 32//34 36//34 35//34
f 29//35 33//35 34//35 30//35
f 41//36 42//36 91//36 89//36
f 43//37 93//37 95//37 44//37
f 38//38 37//38 39//38 40//38
f 41//39 89//39 93//39 43//39
f 42//40 38//40 40//40 44//40
f 91//41 42//41 44//41 95//41
f 37//42 41//42 43//42 39//42
f 39//43 43//43 44//43 40//43
f 37//44 38//44 42//44 41//44
f 49//45 50//45 103//45 101//45
f 51//46 105//46 107//46 52//46
f 46//47 45//47 47//47 48//47
f 49//48 101//48 105//48 51//48
f 50//49 46//49 48//49 52//49
f 103//50 50//50 52//50 107//50
f 45//51 49//51 51//51 47//51
f 47//52 51//52 52//52 48//52
f 45//53 46//53 50//53 49//53
f 61//54 62//54 55//54 53//54
f 63//55 57//55 59//55 64//55
f 56//56 54//56 58//56 60//56
f 61//57 53//57 57//57 63//57
f 62//58 56//58 60//58 64//58
f 55//59 62//59 64//59 59//59
f 54//60 61//60 63//60 58//60
f 58//61 63//61 64//61 60//61
f 54//62 56//62 62//62 61//62
f 73//63 74//63 67//63 65//63
f 75//64 69//64 71//64 76//64
f 68//65 66//65 70//65 72//65
f 73//66 65//66 69//66 75//66
f 74//67 68//67 72//67 76//67
f 67//68 74//68 76//68 71//68
f 66//69 73//69 75//69 70//69
f 70//70 75//70 76//70 72//70
f 66//71 68//71 74//71 73//71
f 85//72 86//72 79//72 77//72
f 87//73 81//73 83//73 88//73
f 80//74 78//74 82//74 84//74
f 85//75 77//75 81//75 87//75
f 86//76 80//76 84//76 88//76
f 79//77 86//77 88//77 83//77
f 78//78 85//78 87//78 82//78
f 82//79 87//79 88//79 84//79
f 78//80 80//80 86//80 85//80
f 97//81 89//81 91//81 98//81
f 99//82 100//82 95//82 93//82
f 92//83 96//83 94//83 90//83
f 97//84 99//84 93//84 89//84
f 98//85 100//85 96//85 92//85
f 91//86 95//86 100//86 98//86
f 90//87 94//87 99//87 97//87
f 94//88 96//88 100//88 99//88
f 90//89 97//89 98//89 92//89
f 109//90 101//90 103//90 110//90
f 111//91 112//91 107//91 105//91
f 104//92 108//92 106//92 102//92
f 109//93 111//93 105//93 101//93
f 110//94 112//94 108//94 104//94
f 103//95 107//95 112//95 110//95
f 102//96 106//96 111//96 109//96
f 106//97 108//97 112//97 111//97
f 102//98 109//98 110//98 104//98
f 133//99 165//99 167//99 134//99
f 135//100 136//100 171//100 169//100
f 114//101 116//101 115//101 113//101
f 133//102 135//102 169//102 165//102
f 134//103 136//103 116//103 114//103
f 118//3 117//3 119//3 120//3
f 122//5 124//5 123//5 121//5
f 120//104 124//104 122//104 118//104
f 118//2 122//2 121//2 117//2
f 117//105 121//105 123//105 119//105
f 119//1 123//1 124//1 120//1
f 182//3 125//3 126//3 184//3
f 186//5 188//5 128//5 127//5
f 182//104 186//104 127//104 125//104
f 126//105 128//105 188//105 184//105
f 129//2 153//2 155//2 130//2
f 131//1 132//1 159//1 157//1
f 129//104 131//104 157//104 153//104
f 155//105 159//105 132//105 130//105
f 167//106 171//106 136//106 134//106
f 113//107 115//107 135//107 133//107
f 115//108 116//108 136//108 135//108
f 113//109 133//109 134//109 114//109
f 161//110 162//110 199//110 197//110
f 163//111 201//111 203//111 164//111
f 138//101 137//101 139//101 140//101
f 161//102 197//102 201//102 163//102
f 162//103 138//103 140//103 164//103
f 142//5 144//5 143//5 141//5
f 146//3 145//3 147//3 148//3
f 144//104 142//104 146//104 148//104
f 142//2 141//2 145//2 146//2
f 141//105 143//105 147//105 145//105
f 143//1 144//1 148//1 147//1
f 214//5 216//5 150//5 149//5
f 218//3 151//3 152//3 220//3
f 214//104 149//104 151//104 218//104
f 150//105 216//105 220//105 152//105
f 154//2 156//2 155//2 153//2
f 158//1 157//1 159//1 160//1
f 154//104 153//104 157//104 158//104
f 155//105 156//105 160//105 159//105
f 199//106 162//106 164//106 203//106
f 137//107 161//107 163//107 139//107
f 139//112 163//112 164//112 140//112
f 137//113 138//113 162//113 161//113
f 193//114 194//114 167//114 165//114
f 195//115 169//115 171//115 196//115
f 168//116 166//116 170//116 172//116
f 193//117 165//117 169//117 195//117
f 194//118 168//118 172//118 196//118
f 174//3 176//3 175//3 173//3
f 178//5 177//5 179//5 180//5
f 176//104 174//104 178//104 180//104
f 174//1 173//1 177//1 178//1
f 173//105 175//105 179//105 177//105
f 175//2 176//2 180//2 179//2
f 182//3 184//3 183//3 181//3
f 186//5 185//5 187//5 188//5
f 182//104 181//104 185//104 186//104
f 183//105 184//105 188//105 187//105
f 189//1 190//1 223//1 221//1
f 191//2 225//2 227//2 192//2
f 189//104 221//104 225//104 191//104
f 223//105 190//105 192//105 227//105
f 167//119 194//119 196//119 171//119
f 166//120 193//120 195//120 170//120
f 170//121 195//121 196//121 172//121
f 166//122 168//122 194//122 193//122
f 229//123 197//123 199//123 230//123
f 231//124 232//124 203//124 201//124
f 200//116 204//116 202//116 198//116
f 229//117 231//117 201//117 197//117
f 230//118 232//118 204//118 200//118
f 206//5 205//5 207//5 208//5
f 210//3 212//3 211//3 209//3
f 208//104 212//104 210//104 206//104
f 206//1 210//1 209//1 205//1
f 205//105 209//105 211//105 207//105
f 207//2 211//2 212//2 208//2
f 214//5 213//5 215//5 216//5
f 218//3 220//3 219//3 217//3
f 214//104 218//104 217//104 213//104
f 215//105 219//105 220//105 216//105
f 222//1 221//1 223//1 224//1
f 226//2 228//2 227//2 225//2
f 222//104 226//104 225//104 221//104
f 223//105 227//105 228//105 224//105
f 199//119 203//119 232//119 230//119
f 198//120 202//120 231//120 229//120
f 202//125 204//125 232//125 231//125
f 198//126 229//126 230//126 200//126
usemtl Stone
f 243//104 244//104 236//104 235//104
f 242//127 234//127 236//127 244//127
f 234//128 233//128 235//128 236//128
f 241//105 233//105 234//105 242//105
f 233//129 241//129 243//129 235//129
f 243//104 239//104 240//104 244//104
f 242//127 244//127 240//127 238//127
f 238//130 240//130 239//130 237//130
f 241//105 242//105 238//105 237//105
f 237//129 239//129 243//129 241//129
