# Blender v3.0.0 OBJ File: 'Wall_FirstAge.blend'
# www.blender.org
mtllib Wall_FirstAge.mtl
o Wall_FirstAge_Cube.026
v -0.675937 0.001383 0.025949
v -0.675937 0.002179 -0.014734
v -0.675937 0.045748 0.026076
v -0.675937 0.046544 -0.014607
v -0.387768 0.002338 0.023867
v -0.381249 0.003071 -0.010371
v -0.388238 0.046703 0.023995
v -0.381719 0.047437 -0.010244
v -0.675937 0.052196 0.025156
v -0.675937 0.052923 -0.013413
v -0.675937 0.096560 0.025634
v -0.675937 0.097288 -0.012934
v -0.386762 0.051140 0.022418
v -0.381457 0.051909 -0.009719
v -0.386248 0.095505 0.022896
v -0.380943 0.096274 -0.009241
v -0.675937 0.244938 0.026559
v -0.675937 0.243716 -0.012008
v -0.675937 0.200585 0.027626
v -0.675937 0.199363 -0.010942
v -0.390529 0.241576 0.023686
v -0.385284 0.240602 -0.008443
v -0.392185 0.197223 0.024752
v -0.386939 0.196249 -0.007376
v -0.675937 0.194374 0.025949
v -0.675937 0.193578 -0.014734
v -0.675937 0.150009 0.026076
v -0.675937 0.149212 -0.014607
v -0.387768 0.193419 0.023867
v -0.381249 0.192685 -0.010371
v -0.388238 0.149054 0.023995
v -0.381719 0.148320 -0.010244
v -0.675937 0.143561 0.025156
v -0.675937 0.142833 -0.013413
v -0.675937 0.099197 0.025634
v -0.675937 0.098469 -0.012934
v -0.386762 0.144616 0.022418
v -0.381457 0.143847 -0.009719
v -0.386248 0.100252 0.022896
v -0.380943 0.099483 -0.009241
v -0.675937 0.246761 0.025949
v -0.675937 0.247557 -0.014734
v -0.675937 0.291126 0.026076
v -0.675937 0.291922 -0.014607
v -0.387768 0.247716 0.023867
v -0.381249 0.248449 -0.010371
v -0.388238 0.292081 0.023995
v -0.381719 0.292815 -0.010244
v -0.675937 0.297574 0.025156
v -0.675937 0.298301 -0.013413
v -0.675937 0.341938 0.025634
v -0.675937 0.342666 -0.012934
v -0.386762 0.296518 0.022418
v -0.381457 0.297287 -0.009719
v -0.386248 0.340883 0.022896
v -0.380943 0.341652 -0.009241
v -0.675937 0.490316 0.026559
v -0.675937 0.489094 -0.012008
v -0.675937 0.445963 0.027626
v -0.675937 0.444741 -0.010942
v -0.390529 0.486954 0.023686
v -0.385284 0.485980 -0.008443
v -0.392185 0.442601 0.024752
v -0.386939 0.441627 -0.007376
v -0.675937 0.439752 0.025949
v -0.675937 0.438956 -0.014734
v -0.675937 0.395387 0.026076
v -0.675937 0.394591 -0.014607
v -0.387768 0.438797 0.023867
v -0.381249 0.438063 -0.010371
v -0.388238 0.394432 0.023995
v -0.381719 0.393698 -0.010244
v -0.675937 0.388939 0.025156
v -0.675937 0.388211 -0.013413
v -0.675937 0.344575 0.025634
v -0.675937 0.343847 -0.012934
v -0.386762 0.389994 0.022418
v -0.381457 0.389225 -0.009719
v -0.386248 0.345630 0.022896
v -0.380943 0.344861 -0.009241
v -0.414352 -0.012199 -0.022207
v -0.414352 0.513769 -0.022206
v -0.414352 -0.012199 0.036721
v -0.414352 0.513769 0.036721
v -0.362690 -0.012199 -0.022207
v -0.362690 0.513769 -0.022206
v -0.362690 -0.012199 0.036721
v -0.362690 0.513769 0.036721
v -0.027951 -0.012199 -0.022207
v -0.027951 0.513769 -0.022206
v -0.027951 -0.012199 0.036721
v -0.027951 0.513769 0.036721
v 0.675937 0.001383 0.025949
v 0.000000 0.000314 0.027370
v 0.675937 0.002179 -0.014734
v -0.000000 0.001161 -0.011978
v 0.675937 0.045748 0.026076
v 0.000000 0.050207 0.027513
v 0.675937 0.046544 -0.014607
v -0.000000 0.051054 -0.011834
v 0.387768 0.002338 0.023867
v 0.381249 0.003071 -0.010371
v 0.388238 0.046703 0.023995
v 0.381719 0.047437 -0.010244
v 0.675937 0.052196 0.025156
v 0.000000 0.048208 0.022913
v 0.675937 0.052923 -0.013413
v -0.000000 0.049147 -0.013662
v 0.675937 0.096560 0.025634
v 0.000000 0.097368 0.023443
v 0.675937 0.097288 -0.012935
v -0.000000 0.098308 -0.013132
v 0.386762 0.051140 0.022418
v 0.381457 0.051909 -0.009719
v 0.386248 0.095505 0.022896
v 0.380943 0.096274 -0.009241
v 0.675937 0.244938 0.026559
v 0.000000 0.238892 0.024043
v 0.675937 0.243716 -0.012008
v -0.000000 0.237969 -0.012517
v 0.675937 0.200585 0.027626
v 0.000000 0.194829 0.025225
v 0.675937 0.199363 -0.010942
v -0.000000 0.193906 -0.011336
v 0.390529 0.241576 0.023685
v 0.385284 0.240602 -0.008443
v 0.392185 0.197223 0.024752
v 0.386939 0.196249 -0.007376
v 0.675937 0.194374 0.025949
v 0.000000 0.195443 0.027370
v 0.675937 0.193578 -0.014734
v -0.000000 0.194595 -0.011978
v 0.675937 0.150009 0.026076
v 0.000000 0.145550 0.027513
v 0.675937 0.149212 -0.014607
v -0.000000 0.144702 -0.011834
v 0.387768 0.193419 0.023867
v 0.381249 0.192685 -0.010371
v 0.388238 0.149054 0.023995
v 0.381719 0.148320 -0.010244
v 0.675937 0.143561 0.025156
v 0.000000 0.147548 0.022913
v 0.675937 0.142833 -0.013413
v -0.000000 0.146609 -0.013662
v 0.675937 0.099197 0.025634
v 0.000000 0.098388 0.023443
v 0.675937 0.098469 -0.012935
v -0.000000 0.097449 -0.013132
v 0.386762 0.144616 0.022418
v 0.381457 0.143847 -0.009719
v 0.386248 0.100252 0.022896
v 0.380943 0.099483 -0.009241
v 0.675937 0.246761 0.025949
v 0.000000 0.245692 0.027370
v 0.675937 0.247557 -0.014734
v -0.000000 0.246539 -0.011978
v 0.675937 0.291126 0.026076
v 0.000000 0.295585 0.027513
v 0.675937 0.291922 -0.014607
v -0.000000 0.296432 -0.011834
v 0.387768 0.247716 0.023867
v 0.381249 0.248449 -0.010371
v 0.388238 0.292081 0.023995
v 0.381719 0.292815 -0.010244
v 0.675937 0.297574 0.025156
v 0.000000 0.293586 0.022913
v 0.675937 0.298301 -0.013413
v -0.000000 0.294525 -0.013662
v 0.675937 0.341938 0.025634
v 0.000000 0.342746 0.023443
v 0.675937 0.342666 -0.012935
v -0.000000 0.343686 -0.013132
v 0.386762 0.296518 0.022418
v 0.381457 0.297287 -0.009719
v 0.386248 0.340883 0.022896
v 0.380943 0.341652 -0.009241
v 0.675937 0.490316 0.026559
v 0.000000 0.484270 0.024043
v 0.675937 0.489094 -0.012008
v -0.000000 0.483347 -0.012517
v 0.675937 0.445963 0.027626
v 0.000000 0.440207 0.025225
v 0.675937 0.444741 -0.010942
v -0.000000 0.439284 -0.011336
v 0.390529 0.486954 0.023685
v 0.385284 0.485980 -0.008443
v 0.392185 0.442601 0.024752
v 0.386939 0.441627 -0.007376
v 0.675937 0.439752 0.025949
v 0.000000 0.440821 0.027370
v 0.675937 0.438956 -0.014734
v -0.000000 0.439973 -0.011978
v 0.675937 0.395387 0.026076
v 0.000000 0.390928 0.027513
v 0.675937 0.394591 -0.014607
v -0.000000 0.390080 -0.011834
v 0.387768 0.438797 0.023867
v 0.381249 0.438063 -0.010371
v 0.388238 0.394432 0.023995
v 0.381719 0.393698 -0.010244
v 0.675937 0.388939 0.025156
v 0.000000 0.392927 0.022913
v 0.675937 0.388211 -0.013413
v -0.000000 0.391987 -0.013662
v 0.675937 0.344575 0.025634
v 0.000000 0.343766 0.023443
v 0.675937 0.343847 -0.012935
v -0.000000 0.342827 -0.013132
v 0.386762 0.389994 0.022418
v 0.381457 0.389225 -0.009719
v 0.386248 0.345630 0.022896
v 0.380943 0.344861 -0.009241
v 0.414352 -0.012199 -0.022207
v 0.414352 0.513769 -0.022207
v 0.414352 -0.012199 0.036721
v 0.414352 0.513769 0.036721
v 0.362690 -0.012199 -0.022207
v 0.362690 0.513769 -0.022207
v 0.362690 -0.012199 0.036721
v 0.362690 0.513769 0.036721
v 0.027951 -0.012199 -0.022207
v 0.027951 0.513769 -0.022206
v 0.027951 -0.012199 0.036721
v 0.027951 0.513769 0.036721
v -0.000000 -0.012199 -0.022207
v -0.000000 0.513769 -0.022206
v 0.000000 -0.012199 0.036721
v 0.000000 0.513769 0.036721
vn -0.0004 -0.9998 -0.0209
vn 0.0032 -0.9998 -0.0201
vn -0.0014 -0.9998 -0.0211
vn -0.0059 0.9998 0.0204
vn -0.0066 0.9998 0.0204
vn -0.0033 0.9998 0.0201
vn -0.0010 -0.0029 1.0000
vn -0.0009 -0.0029 1.0000
vn 0.0072 -0.0028 1.0000
vn 0.0052 0.0029 -1.0000
vn 0.0053 0.0029 -1.0000
vn -0.0000 0.0029 -1.0000
vn 0.0148 0.0029 -0.9999
vn 0.0000 -0.0029 1.0000
vn 0.0000 0.9998 0.0207
vn -0.0000 -0.9998 -0.0219
vn -0.0053 -0.9997 -0.0232
vn -0.0035 -0.9998 -0.0214
vn -0.0057 -0.9997 -0.0236
vn -0.0003 0.9997 0.0228
vn -0.0012 0.9997 0.0231
vn 0.0035 0.9998 0.0214
vn 0.0040 -0.0108 0.9999
vn 0.0094 -0.0108 0.9999
vn 0.0012 0.0108 -0.9999
vn 0.0011 0.0108 -0.9999
vn -0.0000 0.0108 -0.9999
vn 0.0126 0.0107 -0.9999
vn 0.0000 -0.0108 0.9999
vn 0.0000 0.9997 0.0245
vn -0.0000 -0.9997 -0.0254
vn 0.0092 0.9995 -0.0288
vn 0.0088 0.9996 -0.0285
vn 0.0113 0.9995 -0.0302
vn -0.0089 -0.9995 0.0288
vn -0.0113 -0.9995 0.0302
vn -0.0084 -0.9996 0.0285
vn 0.0046 0.0247 0.9997
vn 0.0104 0.0238 0.9997
vn 0.0048 0.0246 0.9997
vn 0.0005 -0.0248 -0.9997
vn -0.0000 -0.0252 -0.9997
vn 0.0009 -0.0247 -0.9997
vn 0.0120 -0.0243 -0.9996
vn 0.0000 0.0254 0.9997
vn 0.0000 -0.9996 0.0272
vn -0.0000 0.9996 -0.0271
vn -0.0004 0.9998 -0.0209
vn -0.0014 0.9998 -0.0211
vn 0.0032 0.9998 -0.0201
vn -0.0059 -0.9998 0.0204
vn -0.0033 -0.9998 0.0201
vn -0.0066 -0.9998 0.0204
vn -0.0010 0.0029 1.0000
vn 0.0072 0.0028 1.0000
vn -0.0009 0.0029 1.0000
vn 0.0052 -0.0029 -1.0000
vn -0.0000 -0.0029 -1.0000
vn 0.0053 -0.0029 -1.0000
vn 0.0148 -0.0029 -0.9999
vn 0.0000 0.0029 1.0000
vn 0.0000 -0.9998 0.0207
vn -0.0000 0.9998 -0.0219
vn -0.0053 0.9997 -0.0232
vn -0.0057 0.9997 -0.0236
vn -0.0035 0.9998 -0.0214
vn -0.0003 -0.9997 0.0228
vn 0.0035 -0.9998 0.0214
vn -0.0012 -0.9997 0.0231
vn 0.0040 0.0108 0.9999
vn 0.0094 0.0108 0.9999
vn 0.0012 -0.0108 -0.9999
vn -0.0000 -0.0108 -0.9999
vn 0.0011 -0.0108 -0.9999
vn 0.0126 -0.0107 -0.9999
vn 0.0000 0.0108 0.9999
vn 0.0000 -0.9997 0.0245
vn -0.0000 0.9997 -0.0254
vn -1.0000 0.0000 0.0000
vn 1.0000 0.0000 0.0000
vn -0.0000 0.0000 -1.0000
vn 0.0000 -0.0000 1.0000
vn 0.0000 -1.0000 0.0000
vn 0.0004 -0.9998 -0.0209
vn 0.0014 -0.9998 -0.0211
vn -0.0032 -0.9998 -0.0201
vn 0.0059 0.9998 0.0204
vn 0.0033 0.9998 0.0201
vn 0.0066 0.9998 0.0204
vn 0.0010 -0.0029 1.0000
vn -0.0072 -0.0028 1.0000
vn 0.0009 -0.0029 1.0000
vn -0.0052 0.0029 -1.0000
vn -0.0053 0.0029 -1.0000
vn -0.0148 0.0029 -0.9999
vn 0.0053 -0.9997 -0.0232
vn 0.0057 -0.9997 -0.0236
vn 0.0035 -0.9998 -0.0214
vn 0.0003 0.9997 0.0228
vn -0.0035 0.9998 0.0214
vn 0.0012 0.9997 0.0231
vn -0.0040 -0.0108 0.9999
vn -0.0094 -0.0108 0.9999
vn -0.0012 0.0108 -0.9999
vn -0.0011 0.0108 -0.9999
vn -0.0126 0.0107 -0.9999
vn -0.0092 0.9995 -0.0288
vn -0.0113 0.9995 -0.0302
vn -0.0088 0.9996 -0.0285
vn 0.0089 -0.9995 0.0288
vn 0.0084 -0.9996 0.0285
vn 0.0113 -0.9995 0.0302
vn -0.0046 0.0247 0.9997
vn -0.0048 0.0246 0.9997
vn -0.0104 0.0238 0.9997
vn -0.0005 -0.0248 -0.9997
vn -0.0009 -0.0247 -0.9997
vn -0.0120 -0.0243 -0.9996
vn 0.0004 0.9998 -0.0209
vn -0.0032 0.9998 -0.0201
vn 0.0014 0.9998 -0.0211
vn 0.0059 -0.9998 0.0204
vn 0.0066 -0.9998 0.0204
vn 0.0033 -0.9998 0.0201
vn 0.0010 0.0029 1.0000
vn 0.0009 0.0029 1.0000
vn -0.0072 0.0028 1.0000
vn -0.0052 -0.0029 -1.0000
vn -0.0053 -0.0029 -1.0000
vn -0.0148 -0.0029 -0.9999
vn 0.0053 0.9997 -0.0232
vn 0.0035 0.9998 -0.0214
vn 0.0057 0.9997 -0.0236
vn 0.0003 -0.9997 0.0228
vn 0.0012 -0.9997 0.0231
vn -0.0035 -0.9998 0.0214
vn -0.0040 0.0108 0.9999
vn -0.0094 0.0108 0.9999
vn -0.0012 -0.0108 -0.9999
vn -0.0011 -0.0108 -0.9999
vn -0.0126 -0.0107 -0.9999
vn 0.0000 1.0000 0.0000
usemtl Wood
s 1
f 5//1 1//2 2//2 6//3
f 7//4 8//5 4//6 3//6
f 5//7 7//8 3//9 1//9
f 6//10 8//11 100//12 96//12
f 2//13 4//13 8//11 6//10
f 94//14 98//14 7//8 5//7
f 98//15 100//15 8//5 7//4
f 94//16 5//1 6//3 96//16
f 13//17 9//18 10//18 14//19
f 15//20 16//21 12//22 11//22
f 13//23 15//23 11//24 9//24
f 14//25 16//26 112//27 108//27
f 10//28 12//28 16//26 14//25
f 106//29 110//29 15//23 13//23
f 110//30 112//30 16//21 15//20
f 106//31 13//17 14//19 108//31
f 21//32 22//33 18//34 17//34
f 23//35 19//36 20//36 24//37
f 21//38 17//39 19//39 23//40
f 22//41 120//42 124//42 24//43
f 18//44 22//41 24//43 20//44
f 118//45 21//38 23//40 122//45
f 122//46 23//35 24//37 124//46
f 118//47 120//47 22//33 21//32
f 29//48 30//49 26//50 25//50
f 31//51 27//52 28//52 32//53
f 29//54 25//55 27//55 31//56
f 30//57 132//58 136//58 32//59
f 26//60 30//57 32//59 28//60
f 130//61 29//54 31//56 134//61
f 134//62 31//51 32//53 136//62
f 130//63 132//63 30//49 29//48
f 37//64 38//65 34//66 33//66
f 39//67 35//68 36//68 40//69
f 37//70 33//71 35//71 39//70
f 38//72 144//73 148//73 40//74
f 34//75 38//72 40//74 36//75
f 142//76 37//70 39//70 146//76
f 146//77 39//67 40//69 148//77
f 142//78 144//78 38//65 37//64
f 45//1 41//2 42//2 46//3
f 47//4 48//5 44//6 43//6
f 45//7 47//8 43//9 41//9
f 46//10 48//11 160//12 156//12
f 42//13 44//13 48//11 46//10
f 154//14 158//14 47//8 45//7
f 158//15 160//15 48//5 47//4
f 154//16 45//1 46//3 156//16
f 53//17 49//18 50//18 54//19
f 55//20 56//21 52//22 51//22
f 53//23 55//23 51//24 49//24
f 54//25 56//26 172//27 168//27
f 50//28 52//28 56//26 54//25
f 166//29 170//29 55//23 53//23
f 170//30 172//30 56//21 55//20
f 166//31 53//17 54//19 168//31
f 61//32 62//33 58//34 57//34
f 63//35 59//36 60//36 64//37
f 61//38 57//39 59//39 63//40
f 62//41 180//42 184//42 64//43
f 58//44 62//41 64//43 60//44
f 178//45 61//38 63//40 182//45
f 182//46 63//35 64//37 184//46
f 178//47 180//47 62//33 61//32
f 69//48 70//49 66//50 65//50
f 71//51 67//52 68//52 72//53
f 69//54 65//55 67//55 71//56
f 70//57 192//58 196//58 72//59
f 66//60 70//57 72//59 68//60
f 190//61 69//54 71//56 194//61
f 194//62 71//51 72//53 196//62
f 190//63 192//63 70//49 69//48
f 77//64 78//65 74//66 73//66
f 79//67 75//68 76//68 80//69
f 77//70 73//71 75//71 79//70
f 78//72 204//73 208//73 80//74
f 74//75 78//72 80//74 76//75
f 202//76 77//70 79//70 206//76
f 206//77 79//67 80//69 208//77
f 202//78 204//78 78//65 77//64
f 82//79 81//79 83//79 84//79
f 86//80 88//80 87//80 85//80
f 82//81 86//81 85//81 81//81
f 83//82 87//82 88//82 84//82
f 83//83 81//83 85//83 87//83
f 90//79 89//79 91//79 92//79
f 90//81 226//81 225//81 89//81
f 91//82 227//82 228//82 92//82
f 91//83 89//83 225//83 227//83
f 101//84 102//85 95//86 93//86
f 103//87 97//88 99//88 104//89
f 101//90 93//91 97//91 103//92
f 102//93 96//12 100//12 104//94
f 95//95 102//93 104//94 99//95
f 94//14 101//90 103//92 98//14
f 98//15 103//87 104//89 100//15
f 94//16 96//16 102//85 101//84
f 113//96 114//97 107//98 105//98
f 115//99 109//100 111//100 116//101
f 113//102 105//103 109//103 115//102
f 114//104 108//27 112//27 116//105
f 107//106 114//104 116//105 111//106
f 106//29 113//102 115//102 110//29
f 110//30 115//99 116//101 112//30
f 106//31 108//31 114//97 113//96
f 125//107 117//108 119//108 126//109
f 127//110 128//111 123//112 121//112
f 125//113 127//114 121//115 117//115
f 126//116 128//117 124//42 120//42
f 119//118 123//118 128//117 126//116
f 118//45 122//45 127//114 125//113
f 122//46 124//46 128//111 127//110
f 118//47 125//107 126//109 120//47
f 137//119 129//120 131//120 138//121
f 139//122 140//123 135//124 133//124
f 137//125 139//126 133//127 129//127
f 138//128 140//129 136//58 132//58
f 131//130 135//130 140//129 138//128
f 130//61 134//61 139//126 137//125
f 134//62 136//62 140//123 139//122
f 130//63 137//119 138//121 132//63
f 149//131 141//132 143//132 150//133
f 151//134 152//135 147//136 145//136
f 149//137 151//137 145//138 141//138
f 150//139 152//140 148//73 144//73
f 143//141 147//141 152//140 150//139
f 142//76 146//76 151//137 149//137
f 146//77 148//77 152//135 151//134
f 142//78 149//131 150//133 144//78
f 161//84 162//85 155//86 153//86
f 163//87 157//88 159//88 164//89
f 161//90 153//91 157//91 163//92
f 162//93 156//12 160//12 164//94
f 155//95 162//93 164//94 159//95
f 154//14 161//90 163//92 158//14
f 158//15 163//87 164//89 160//15
f 154//16 156//16 162//85 161//84
f 173//96 174//97 167//98 165//98
f 175//99 169//100 171//100 176//101
f 173//102 165//103 169//103 175//102
f 174//104 168//27 172//27 176//105
f 167//106 174//104 176//105 171//106
f 166//29 173//102 175//102 170//29
f 170//30 175//99 176//101 172//30
f 166//31 168//31 174//97 173//96
f 185//107 177//108 179//108 186//109
f 187//110 188//111 183//112 181//112
f 185//113 187//114 181//115 177//115
f 186//116 188//117 184//42 180//42
f 179//118 183//118 188//117 186//116
f 178//45 182//45 187//114 185//113
f 182//46 184//46 188//111 187//110
f 178//47 185//107 186//109 180//47
f 197//119 189//120 191//120 198//121
f 199//122 200//123 195//124 193//124
f 197//125 199//126 193//127 189//127
f 198//128 200//129 196//58 192//58
f 191//130 195//130 200//129 198//128
f 190//61 194//61 199//126 197//125
f 194//62 196//62 200//123 199//122
f 190//63 197//119 198//121 192//63
f 209//131 201//132 203//132 210//133
f 211//134 212//135 207//136 205//136
f 209//137 211//137 205//138 201//138
f 210//139 212//140 208//73 204//73
f 203//141 207//141 212//140 210//139
f 202//76 206//76 211//137 209//137
f 206//77 208//77 212//135 211//134
f 202//78 209//131 210//133 204//78
f 214//80 216//80 215//80 213//80
f 218//79 217//79 219//79 220//79
f 214//81 213//81 217//81 218//81
f 215//82 216//82 220//82 219//82
f 215//83 219//83 217//83 213//83
f 222//80 224//80 223//80 221//80
f 222//81 221//81 225//81 226//81
f 223//82 224//82 228//82 227//82
f 223//83 227//83 225//83 221//83
usemtl Wood_Light
f 82//142 84//142 88//142 86//142
f 90//142 92//142 228//142 226//142
f 2//79 1//79 3//79 4//79
f 10//79 9//79 11//79 12//79
f 18//79 20//79 19//79 17//79
f 26//79 28//79 27//79 25//79
f 34//79 36//79 35//79 33//79
f 42//79 41//79 43//79 44//79
f 50//79 49//79 51//79 52//79
f 58//79 60//79 59//79 57//79
f 66//79 68//79 67//79 65//79
f 74//79 76//79 75//79 73//79
f 214//142 218//142 220//142 216//142
f 222//142 226//142 228//142 224//142
f 95//80 99//80 97//80 93//80
f 107//80 111//80 109//80 105//80
f 119//80 117//80 121//80 123//80
f 131//80 129//80 133//80 135//80
f 143//80 141//80 145//80 147//80
f 155//80 159//80 157//80 153//80
f 167//80 171//80 169//80 165//80
f 179//80 177//80 181//80 183//80
f 191//80 189//80 193//80 195//80
f 203//80 201//80 205//80 207//80
