# Blender v3.0.0 OBJ File: 'Farm_FirstAge_Level1.blend'
# www.blender.org
mtllib Farm_FirstAge_Level1.mtl
o Farm_FirstAge_Level1_Cube.277
v -0.827724 0.023058 -0.314740
v 0.753768 0.023058 -0.358288
v 0.814967 0.023058 -0.314740
v -0.745127 0.023058 -0.271193
v -0.695081 0.051195 -0.314740
v -0.509843 0.051195 -0.314740
v -0.546428 0.023058 -0.266541
v -0.745127 0.023058 -0.358287
v 0.753768 0.023058 -0.271193
v 0.702272 0.051195 -0.314740
v 0.478335 0.023058 -0.362055
v -0.546429 0.023058 -0.362939
v -0.297346 0.023058 -0.269207
v -0.277635 0.051195 -0.314740
v 0.046057 0.051195 -0.314740
v 0.049867 0.023058 -0.270091
v -0.297346 0.023058 -0.360273
v 0.478335 0.023058 -0.267425
v 0.445498 0.051195 -0.314740
v 0.049867 0.023058 -0.359389
v 0.831483 0.023058 -0.611665
v -0.774993 0.023058 -0.568117
v -0.836192 0.023058 -0.611665
v 0.766160 0.023058 -0.655212
v 0.726579 0.051195 -0.611665
v 0.580078 0.051195 -0.611665
v 0.609013 0.023058 -0.659864
v 0.766160 0.023058 -0.568118
v -0.774993 0.023058 -0.655212
v -0.723496 0.051195 -0.611665
v -0.499559 0.023058 -0.564350
v 0.609013 0.023058 -0.563466
v 0.412020 0.023058 -0.657198
v 0.396430 0.051195 -0.611665
v 0.015691 0.051195 -0.611665
v 0.010762 0.023058 -0.656314
v 0.412020 0.023058 -0.566132
v -0.499559 0.023058 -0.658980
v -0.466722 0.051195 -0.611665
v 0.010762 0.023058 -0.567016
v -0.883366 -0.005080 -0.314740
v -0.807075 0.023058 -0.282079
v -0.766742 0.044161 -0.314740
v -0.807075 0.023058 -0.347400
v -0.795174 -0.005080 -0.370508
v 0.715146 0.044161 -0.341291
v 0.799668 0.023058 -0.347401
v 0.870610 -0.005080 -0.314740
v 0.758972 0.044161 -0.314740
v 0.799668 0.023058 -0.282080
v 0.805264 -0.005080 -0.258973
v -0.707592 0.044161 -0.288190
v -0.583014 -0.005080 -0.376464
v -0.707592 0.044161 -0.341290
v -0.795174 -0.005080 -0.258972
v -0.518989 0.044161 -0.285354
v -0.610271 0.051195 -0.314740
v -0.654154 0.023058 -0.270030
v -0.654154 0.023058 -0.359450
v 0.453707 0.044161 -0.343588
v 0.511172 -0.005080 -0.254148
v 0.805264 -0.005080 -0.370508
v 0.715146 0.044161 -0.288190
v 0.654310 0.023058 -0.270251
v 0.609552 0.051195 -0.314740
v 0.654310 0.023058 -0.359230
v -0.317058 -0.005080 -0.373050
v -0.282562 0.044161 -0.286979
v -0.518989 0.044161 -0.344126
v -0.583014 -0.005080 -0.253015
v -0.426107 0.023058 -0.364598
v -0.426107 0.023058 -0.264882
v -0.397672 0.051195 -0.314740
v -0.282562 0.044161 -0.342501
v -0.317058 -0.005080 -0.256430
v 0.053678 -0.005080 -0.371918
v 0.047010 0.044161 -0.287518
v -0.134726 0.051195 -0.314740
v -0.144053 0.023058 -0.273087
v -0.144053 0.023058 -0.356393
v 0.047010 0.044161 -0.341962
v 0.053678 -0.005080 -0.257562
v 0.511172 -0.005080 -0.375333
v 0.453707 0.044161 -0.285893
v 0.264101 0.023058 -0.266208
v 0.245777 0.051195 -0.314740
v 0.264101 0.023058 -0.363272
v 0.875489 -0.005080 -0.611665
v 0.815152 0.023058 -0.644326
v 0.783254 0.044161 -0.611665
v 0.815152 0.023058 -0.579005
v 0.805740 -0.005080 -0.555897
v -0.736370 0.044161 -0.585114
v -0.820892 0.023058 -0.579004
v -0.891834 -0.005080 -0.611665
v -0.780197 0.044161 -0.611665
v -0.820892 0.023058 -0.644325
v -0.826489 -0.005080 -0.667432
v 0.736474 0.044161 -0.638215
v 0.637948 -0.005080 -0.549941
v 0.736474 0.044161 -0.585115
v 0.805740 -0.005080 -0.667433
v 0.587312 0.044161 -0.641051
v 0.659505 0.051195 -0.611665
v 0.694211 0.023058 -0.656375
v 0.694211 0.023058 -0.566955
v -0.474932 0.044161 -0.582817
v -0.532396 -0.005080 -0.672257
v -0.826489 -0.005080 -0.555897
v -0.736370 0.044161 -0.638215
v -0.675535 0.023058 -0.656154
v -0.630776 0.051195 -0.611665
v -0.675535 0.023058 -0.567175
v 0.427609 -0.005080 -0.553355
v 0.400328 0.044161 -0.639426
v 0.587312 0.044161 -0.582279
v 0.637948 -0.005080 -0.673389
v 0.513854 0.023058 -0.561807
v 0.513853 0.023058 -0.661523
v 0.491365 0.051195 -0.611665
v 0.400328 0.044161 -0.583904
v 0.427609 -0.005080 -0.669975
v 0.005832 -0.005080 -0.554487
v 0.014459 0.044161 -0.638887
v 0.252223 0.051195 -0.611665
v 0.259120 0.023058 -0.653318
v 0.259120 0.023058 -0.570012
v 0.014459 0.044161 -0.584443
v 0.005832 -0.005080 -0.668843
v -0.532396 -0.005080 -0.551072
v -0.474932 0.044161 -0.640512
v -0.264862 0.023058 -0.660197
v -0.246259 0.051195 -0.611665
v -0.264862 0.023058 -0.563133
v -0.861318 -0.005080 -0.272914
v -0.761967 0.038690 -0.293263
v -0.861318 -0.005080 -0.356566
v -0.761967 0.038690 -0.336217
v 0.854273 -0.005080 -0.272914
v 0.758237 0.038690 -0.293263
v 0.854273 -0.005080 -0.356566
v 0.758237 0.038690 -0.336218
v -0.698038 -0.005080 -0.371997
v -0.621242 0.044161 -0.341999
v -0.698038 -0.005080 -0.257483
v -0.621242 0.044161 -0.287481
v 0.620741 0.044161 -0.341865
v 0.699069 -0.005080 -0.257766
v 0.699068 -0.005080 -0.371714
v 0.620741 0.044161 -0.287616
v -0.454541 -0.005080 -0.378589
v -0.404781 0.044161 -0.284342
v -0.404781 0.044161 -0.345138
v -0.454541 -0.005080 -0.250891
v -0.137058 0.044161 -0.340135
v -0.153380 -0.005080 -0.261398
v -0.153380 -0.005080 -0.368082
v -0.137058 0.044161 -0.289345
v 0.250358 0.044161 -0.344330
v 0.282425 -0.005080 -0.252589
v 0.282425 -0.005080 -0.376891
v 0.250358 0.044161 -0.285151
v 0.858052 -0.005080 -0.653491
v 0.779478 0.038690 -0.633142
v 0.858052 -0.005080 -0.569839
v 0.779478 0.038690 -0.590188
v -0.875498 -0.005080 -0.653490
v -0.779462 0.038690 -0.633142
v -0.875498 -0.005080 -0.569839
v -0.779462 0.038690 -0.590187
v 0.728918 -0.005080 -0.554408
v 0.668181 0.044161 -0.584406
v 0.728918 -0.005080 -0.668922
v 0.668181 0.044161 -0.638924
v -0.641966 0.044161 -0.584540
v -0.720293 -0.005080 -0.668639
v -0.720293 -0.005080 -0.554691
v -0.641966 0.044161 -0.638789
v 0.536342 -0.005080 -0.547816
v 0.496987 0.044161 -0.642063
v 0.496987 0.044161 -0.581267
v 0.536342 -0.005080 -0.675514
v 0.253947 0.044161 -0.586270
v 0.266017 -0.005080 -0.665007
v 0.266017 -0.005080 -0.558323
v 0.253947 0.044161 -0.637060
v -0.250910 0.044161 -0.582075
v -0.283466 -0.005080 -0.673816
v -0.283466 -0.005080 -0.549513
v -0.250910 0.044161 -0.641254
vn -0.3949 0.9187 0.0000
vn -0.4391 0.8984 0.0000
vn -0.3760 0.8383 0.3948
vn -0.2626 0.8054 0.5314
vn -0.1686 0.8912 0.4210
vn -0.2174 0.9761 0.0000
vn -0.1686 0.8912 -0.4210
vn -0.2626 0.8054 -0.5314
vn -0.3760 0.8383 -0.3948
vn 0.0860 0.6213 -0.7788
vn 0.1614 0.6090 -0.7766
vn 0.0107 0.4192 -0.9078
vn 0.0109 0.5404 -0.8413
vn 0.0053 0.8491 -0.5281
vn 0.0618 0.8571 -0.5113
vn 0.2053 0.9014 -0.3813
vn 0.2932 0.8293 -0.4757
vn 0.3867 0.8546 -0.3464
vn 0.4023 0.9155 0.0000
vn 0.4422 0.8969 0.0000
vn 0.2342 0.9722 0.0000
vn 0.2053 0.9014 0.3813
vn 0.2932 0.8293 0.4757
vn 0.3867 0.8546 0.3464
vn -0.0704 0.6039 0.7939
vn -0.1287 0.5594 0.8188
vn -0.0166 0.4279 0.9036
vn -0.0195 0.5525 0.8332
vn -0.0098 0.8536 0.5209
vn -0.0508 0.8542 0.5174
vn -0.0398 0.9992 0.0000
vn -0.0020 1.0000 0.0000
vn -0.0098 0.8536 -0.5209
vn -0.0508 0.8542 -0.5174
vn -0.0016 1.0000 0.0000
vn 0.0010 1.0000 0.0000
vn 0.0068 0.8551 -0.5184
vn -0.0069 0.8603 -0.5098
vn -0.0069 0.8603 0.5098
vn 0.0068 0.8551 0.5184
vn -0.0175 0.5662 0.8241
vn -0.0276 0.4559 0.8896
vn -0.0011 0.4399 0.8980
vn 0.0109 0.5491 0.8357
vn -0.0704 0.6039 -0.7939
vn -0.1287 0.5594 -0.8188
vn -0.0195 0.5525 -0.8332
vn -0.0166 0.4279 -0.9036
vn 0.0860 0.6213 0.7788
vn 0.1614 0.6090 0.7766
vn 0.0618 0.8571 0.5113
vn 0.0053 0.8491 0.5281
vn 0.0109 0.5404 0.8413
vn 0.0107 0.4192 0.9078
vn 0.0490 0.9988 0.0000
vn 0.0011 1.0000 0.0000
vn 0.0082 0.5512 -0.8343
vn 0.0134 0.4346 -0.9005
vn -0.0022 0.4288 -0.9033
vn -0.0061 0.5460 -0.8377
vn -0.0034 0.8531 -0.5217
vn 0.0032 0.8552 -0.5183
vn -0.0175 0.5662 -0.8241
vn -0.0276 0.4559 -0.8896
vn 0.0109 0.5491 -0.8357
vn -0.0011 0.4399 -0.8980
vn 0.0241 0.5231 0.8519
vn 0.0313 0.3998 0.9160
vn 0.0089 0.3912 0.9203
vn 0.0032 0.5135 0.8581
vn 0.0008 0.8383 0.5452
vn 0.0107 0.8439 0.5364
vn 0.0024 1.0000 0.0000
vn 0.0003 1.0000 0.0000
vn 0.0008 0.8383 -0.5452
vn 0.0107 0.8439 -0.5364
vn -0.0014 1.0000 0.0000
vn -0.0006 1.0000 0.0000
vn -0.0063 0.8439 -0.5364
vn -0.0063 0.8439 0.5364
vn -0.0034 0.8531 0.5217
vn -0.0139 0.5267 0.8499
vn -0.0170 0.4068 0.9134
vn -0.0022 0.4288 0.9033
vn -0.0061 0.5460 0.8377
vn 0.0241 0.5231 -0.8519
vn 0.0313 0.3998 -0.9160
vn 0.0032 0.5135 -0.8581
vn 0.0089 0.3912 -0.9203
vn 0.0083 0.5512 0.8343
vn 0.0134 0.4346 0.9005
vn 0.0032 0.8552 0.5183
vn 0.0008 1.0000 0.0000
vn -0.0139 0.5267 -0.8499
vn -0.0170 0.4068 -0.9134
vn 0.4714 0.8819 0.0000
vn 0.5257 0.8506 0.0000
vn 0.4396 0.7954 -0.4172
vn 0.3254 0.7884 -0.5220
vn 0.2145 0.8853 -0.4125
vn 0.2653 0.9641 0.0000
vn 0.2145 0.8853 0.4125
vn 0.3254 0.7884 0.5220
vn 0.4396 0.7954 0.4172
vn -0.0860 0.6213 0.7788
vn -0.1614 0.6090 0.7766
vn -0.0107 0.4192 0.9078
vn -0.0109 0.5404 0.8413
vn -0.0053 0.8491 0.5281
vn -0.0618 0.8571 0.5113
vn -0.2053 0.9014 0.3813
vn -0.2932 0.8293 0.4757
vn -0.3867 0.8546 0.3464
vn -0.4023 0.9155 0.0000
vn -0.4422 0.8969 0.0000
vn -0.2342 0.9722 0.0000
vn -0.2053 0.9014 -0.3813
vn -0.2932 0.8293 -0.4757
vn -0.3867 0.8546 -0.3464
vn 0.0891 0.6021 -0.7934
vn 0.1551 0.5506 -0.8202
vn 0.0218 0.4293 -0.9029
vn 0.0245 0.5525 -0.8331
vn 0.0122 0.8534 -0.5211
vn 0.0648 0.8548 -0.5149
vn 0.0536 0.9985 0.0000
vn 0.0025 1.0000 0.0000
vn 0.0122 0.8534 0.5211
vn 0.0648 0.8548 0.5149
vn 0.0021 1.0000 0.0000
vn -0.0013 1.0000 0.0000
vn -0.0079 0.8550 0.5185
vn 0.0090 0.8601 0.5101
vn 0.0090 0.8601 -0.5101
vn -0.0079 0.8550 -0.5185
vn 0.0222 0.5663 -0.8238
vn 0.0340 0.4557 -0.8895
vn -0.0007 0.4382 -0.8988
vn -0.0134 0.5491 -0.8356
vn 0.0891 0.6021 0.7934
vn 0.1551 0.5506 0.8202
vn 0.0245 0.5525 0.8331
vn 0.0218 0.4293 0.9029
vn -0.0860 0.6213 -0.7788
vn -0.1614 0.6090 -0.7766
vn -0.0618 0.8571 -0.5113
vn -0.0053 0.8491 -0.5281
vn -0.0109 0.5404 -0.8413
vn -0.0107 0.4192 -0.9078
vn -0.0490 0.9988 0.0000
vn -0.0011 1.0000 0.0000
vn -0.0080 0.5511 0.8344
vn -0.0133 0.4345 0.9006
vn 0.0012 0.4290 0.9033
vn 0.0045 0.5464 0.8375
vn 0.0025 0.8533 0.5213
vn -0.0031 0.8551 0.5183
vn 0.0222 0.5663 0.8238
vn 0.0340 0.4557 0.8895
vn -0.0134 0.5491 0.8356
vn -0.0007 0.4382 0.8988
vn -0.0276 0.5240 -0.8512
vn -0.0369 0.4000 -0.9157
vn -0.0095 0.3924 -0.9197
vn -0.0049 0.5138 -0.8578
vn -0.0018 0.8383 -0.5452
vn -0.0120 0.8446 -0.5352
vn -0.0027 1.0000 0.0000
vn -0.0005 1.0000 0.0000
vn -0.0018 0.8383 0.5452
vn -0.0120 0.8446 0.5352
vn 0.0004 1.0000 0.0000
vn 0.0049 0.8438 0.5365
vn 0.0049 0.8438 -0.5365
vn 0.0025 0.8533 -0.5213
vn 0.0108 0.5268 -0.8499
vn 0.0134 0.4071 -0.9132
vn 0.0012 0.4290 -0.9033
vn 0.0045 0.5464 -0.8375
vn -0.0276 0.5240 0.8512
vn -0.0369 0.4000 0.9157
vn -0.0049 0.5138 0.8578
vn -0.0095 0.3924 0.9197
vn -0.0080 0.5511 -0.8344
vn -0.0133 0.4345 -0.9006
vn -0.0031 0.8551 -0.5183
vn -0.0008 1.0000 0.0000
vn 0.0108 0.5268 0.8499
vn 0.0134 0.4071 0.9132
usemtl Dirt
s 1
f 1//1 41//2 135//3 42//4
f 1//1 42//4 136//5 43//6
f 1//1 43//6 138//7 44//8
f 1//1 44//8 137//9 41//2
f 2//10 62//11 149//12 66//13
f 2//10 66//13 147//14 46//15
f 2//10 46//15 142//16 47//17
f 2//10 47//17 141//18 62//11
f 3//19 48//20 141//18 47//17
f 3//19 47//17 142//16 49//21
f 3//19 49//21 140//22 50//23
f 3//19 50//23 139//24 48//20
f 4//25 55//26 145//27 58//28
f 4//25 58//28 146//29 52//30
f 4//25 52//30 136//5 42//4
f 4//25 42//4 135//3 55//26
f 5//31 57//32 144//33 54//34
f 5//31 54//34 138//7 43//6
f 5//31 43//6 136//5 52//30
f 5//31 52//30 146//29 57//32
f 6//35 73//36 153//37 69//38
f 6//35 69//38 144//33 57//32
f 6//35 57//32 146//29 56//39
f 6//35 56//39 152//40 73//36
f 7//41 70//42 154//43 72//44
f 7//41 72//44 152//40 56//39
f 7//41 56//39 146//29 58//28
f 7//41 58//28 145//27 70//42
f 8//45 45//46 137//9 44//8
f 8//45 44//8 138//7 54//34
f 8//45 54//34 144//33 59//47
f 8//45 59//47 143//48 45//46
f 9//49 51//50 139//24 50//23
f 9//49 50//23 140//22 63//51
f 9//49 63//51 150//52 64//53
f 9//49 64//53 148//54 51//50
f 10//55 49//21 142//16 46//15
f 10//55 46//15 147//14 65//56
f 10//55 65//56 150//52 63//51
f 10//55 63//51 140//22 49//21
f 11//57 83//58 161//59 87//60
f 11//57 87//60 159//61 60//62
f 11//57 60//62 147//14 66//13
f 11//57 66//13 149//12 83//58
f 12//63 53//64 143//48 59//47
f 12//63 59//47 144//33 69//38
f 12//63 69//38 153//37 71//65
f 12//63 71//65 151//66 53//64
f 13//67 75//68 156//69 79//70
f 13//67 79//70 158//71 68//72
f 13//67 68//72 152//40 72//44
f 13//67 72//44 154//43 75//68
f 14//73 78//74 155//75 74//76
f 14//73 74//76 153//37 73//36
f 14//73 73//36 152//40 68//72
f 14//73 68//72 158//71 78//74
f 15//77 86//78 159//61 81//79
f 15//77 81//79 155//75 78//74
f 15//77 78//74 158//71 77//80
f 15//77 77//80 162//81 86//78
f 16//82 82//83 160//84 85//85
f 16//82 85//85 162//81 77//80
f 16//82 77//80 158//71 79//70
f 16//82 79//70 156//69 82//83
f 17//86 67//87 151//66 71//65
f 17//86 71//65 153//37 74//76
f 17//86 74//76 155//75 80//88
f 17//86 80//88 157//89 67//87
f 18//90 61//91 148//54 64//53
f 18//90 64//53 150//52 84//92
f 18//90 84//92 162//81 85//85
f 18//90 85//85 160//84 61//91
f 19//93 65//56 147//14 60//62
f 19//93 60//62 159//61 86//78
f 19//93 86//78 162//81 84//92
f 19//93 84//92 150//52 65//56
f 20//94 76//95 157//89 80//88
f 20//94 80//88 155//75 81//79
f 20//94 81//79 159//61 87//60
f 20//94 87//60 161//59 76//95
f 21//96 88//97 163//98 89//99
f 21//96 89//99 164//100 90//101
f 21//96 90//101 166//102 91//103
f 21//96 91//103 165//104 88//97
f 22//105 109//106 177//107 113//108
f 22//105 113//108 175//109 93//110
f 22//105 93//110 170//111 94//112
f 22//105 94//112 169//113 109//106
f 23//114 95//115 169//113 94//112
f 23//114 94//112 170//111 96//116
f 23//114 96//116 168//117 97//118
f 23//114 97//118 167//119 95//115
f 24//120 102//121 173//122 105//123
f 24//120 105//123 174//124 99//125
f 24//120 99//125 164//100 89//99
f 24//120 89//99 163//98 102//121
f 25//126 104//127 172//128 101//129
f 25//126 101//129 166//102 90//101
f 25//126 90//101 164//100 99//125
f 25//126 99//125 174//124 104//127
f 26//130 120//131 181//132 116//133
f 26//130 116//133 172//128 104//127
f 26//130 104//127 174//124 103//134
f 26//130 103//134 180//135 120//131
f 27//136 117//137 182//138 119//139
f 27//136 119//139 180//135 103//134
f 27//136 103//134 174//124 105//123
f 27//136 105//123 173//122 117//137
f 28//140 92//141 165//104 91//103
f 28//140 91//103 166//102 101//129
f 28//140 101//129 172//128 106//142
f 28//140 106//142 171//143 92//141
f 29//144 98//145 167//119 97//118
f 29//144 97//118 168//117 110//146
f 29//144 110//146 178//147 111//148
f 29//144 111//148 176//149 98//145
f 30//150 96//116 170//111 93//110
f 30//150 93//110 175//109 112//151
f 30//150 112//151 178//147 110//146
f 30//150 110//146 168//117 96//116
f 31//152 130//153 189//154 134//155
f 31//152 134//155 187//156 107//157
f 31//152 107//157 175//109 113//108
f 31//152 113//108 177//107 130//153
f 32//158 100//159 171//143 106//142
f 32//158 106//142 172//128 116//133
f 32//158 116//133 181//132 118//160
f 32//158 118//160 179//161 100//159
f 33//162 122//163 184//164 126//165
f 33//162 126//165 186//166 115//167
f 33//162 115//167 180//135 119//139
f 33//162 119//139 182//138 122//163
f 34//168 125//169 183//170 121//171
f 34//168 121//171 181//132 120//131
f 34//168 120//131 180//135 115//167
f 34//168 115//167 186//166 125//169
f 35//36 133//172 187//156 128//173
f 35//36 128//173 183//170 125//169
f 35//36 125//169 186//166 124//174
f 35//36 124//174 190//175 133//172
f 36//176 129//177 188//178 132//179
f 36//176 132//179 190//175 124//174
f 36//176 124//174 186//166 126//165
f 36//176 126//165 184//164 129//177
f 37//180 114//181 179//161 118//160
f 37//180 118//160 181//132 121//171
f 37//180 121//171 183//170 127//182
f 37//180 127//182 185//183 114//181
f 38//184 108//185 176//149 111//148
f 38//184 111//148 178//147 131//186
f 38//184 131//186 190//175 132//179
f 38//184 132//179 188//178 108//185
f 39//187 112//151 175//109 107//157
f 39//187 107//157 187//156 133//172
f 39//187 133//172 190//175 131//186
f 39//187 131//186 178//147 112//151
f 40//188 123//189 185//183 127//182
f 40//188 127//182 183//170 128//173
f 40//188 128//173 187//156 134//155
f 40//188 134//155 189//154 123//189
