# Blender v3.0.0 OBJ File: 'Wall_SecondAge.blend'
# www.blender.org
mtllib Wall_SecondAge.mtl
o Wall_SecondAge_Cube.027
v -0.770050 0.439335 -0.092565
v -0.770050 -0.006585 -0.097002
v -0.770050 0.439335 0.080817
v -0.770050 -0.006585 0.088914
v -0.770050 0.439335 0.053293
v -0.770050 0.439335 -0.066420
v -0.770050 -0.006585 0.056102
v -0.770050 -0.006585 -0.062580
v -0.770050 0.426467 0.053293
v -0.770050 0.426467 -0.066420
v -0.456011 0.150023 0.086310
v -0.456011 0.197346 0.086310
v -0.528076 0.150023 0.086310
v -0.528076 0.197346 0.086310
v -0.456011 0.150023 -0.099835
v -0.456011 0.197346 -0.099835
v -0.528076 0.150023 -0.099835
v -0.528076 0.197346 -0.099835
v -0.249714 0.203282 0.086310
v -0.249714 0.250604 0.086310
v -0.321779 0.203282 0.086310
v -0.321779 0.250604 0.086310
v -0.249714 0.203282 -0.099835
v -0.249714 0.250604 -0.099835
v -0.321779 0.203282 -0.099835
v -0.321779 0.250604 -0.099835
v 0.219243 0.309204 0.086310
v 0.219243 0.359393 0.086310
v 0.219243 0.309204 -0.099835
v 0.219243 0.359393 -0.099835
v -0.510825 0.302797 0.085369
v -0.510825 0.350120 0.085369
v -0.582890 0.302797 0.085369
v -0.582890 0.350120 0.085369
v -0.510825 0.302797 -0.100776
v -0.510825 0.350120 -0.100776
v -0.582890 0.302797 -0.100776
v -0.582890 0.350120 -0.100776
v -0.770050 0.389041 0.083589
v -0.770050 0.389041 -0.095722
v -0.770050 0.389041 0.074061
v -0.770050 0.389041 -0.085964
v -0.786569 0.069792 -0.110314
v -0.786569 0.069792 0.111766
v -0.786569 -0.006585 0.124074
v -0.786569 -0.006585 -0.122622
v 0.759493 0.439335 -0.092565
v -0.146666 0.439335 -0.092565
v 0.759493 -0.006585 -0.097002
v -0.146666 -0.006585 -0.097002
v 0.759493 0.439335 0.080817
v -0.146666 0.439335 0.080818
v 0.759493 -0.006585 0.088914
v -0.146666 -0.006585 0.088914
v -0.146666 0.439335 -0.066420
v -0.146666 0.439335 0.053293
v 0.759493 0.439335 0.053293
v 0.759493 0.439335 -0.066420
v 0.759493 -0.006585 0.056102
v 0.759493 -0.006585 -0.062581
v -0.146666 -0.006585 0.056102
v -0.146666 -0.006585 -0.062581
v -0.146666 0.426467 -0.066420
v -0.146666 0.426467 0.053293
v 0.759493 0.426467 0.053293
v 0.759493 0.426467 -0.066420
v 0.598742 0.239457 0.086310
v 0.598742 0.286780 0.086310
v 0.670807 0.239457 0.086310
v 0.670807 0.286780 0.086310
v 0.598742 0.239457 -0.099835
v 0.598742 0.286780 -0.099835
v 0.670807 0.239457 -0.099835
v 0.670807 0.286780 -0.099835
v 0.559310 0.289701 0.086310
v 0.559310 0.337024 0.086310
v 0.631375 0.289701 0.086310
v 0.631375 0.337024 0.086310
v 0.559310 0.289701 -0.099835
v 0.559310 0.337024 -0.099835
v 0.631375 0.289701 -0.099835
v 0.631375 0.337024 -0.099835
v 0.455168 0.223233 0.086310
v 0.455168 0.270555 0.086310
v 0.527233 0.223233 0.086310
v 0.527233 0.270555 0.086310
v 0.455168 0.223233 -0.099835
v 0.455168 0.270555 -0.099835
v 0.527233 0.223233 -0.099835
v 0.527233 0.270555 -0.099835
v 0.422130 0.276491 0.086310
v 0.422130 0.323814 0.086310
v 0.494196 0.276491 0.086310
v 0.494196 0.323814 0.086310
v 0.422130 0.276491 -0.099835
v 0.422130 0.323814 -0.099835
v 0.494196 0.276491 -0.099835
v 0.494196 0.323814 -0.099835
v 0.288677 0.254852 0.086310
v 0.288677 0.305041 0.086310
v 0.360742 0.254852 0.086310
v 0.360742 0.305041 0.086310
v 0.288677 0.254852 -0.099835
v 0.288677 0.305041 -0.099835
v 0.360742 0.254852 -0.099835
v 0.360742 0.305041 -0.099835
v 0.310653 0.309204 0.086310
v 0.310653 0.359393 0.086310
v 0.310653 0.309204 -0.099835
v 0.310653 0.359393 -0.099835
v 0.500268 0.110029 0.092500
v 0.500268 0.157352 0.092500
v 0.572333 0.110029 0.092500
v 0.572333 0.157352 0.092500
v 0.500268 0.110029 -0.093645
v 0.500268 0.157352 -0.093645
v 0.572333 0.110029 -0.093645
v 0.572333 0.157352 -0.093645
v -0.146666 0.389041 0.083589
v 0.759493 0.389041 0.083589
v -0.146666 0.389041 -0.095722
v 0.759493 0.389041 -0.095722
v -0.146666 0.389041 0.074061
v 0.759493 0.389041 0.074061
v -0.146666 0.389041 -0.085964
v 0.759493 0.389041 -0.085964
v 0.773880 0.069792 -0.110314
v 0.773880 0.069792 0.111766
v 0.773880 -0.006585 0.124074
v 0.773880 -0.006585 -0.122622
v -0.146666 0.069792 -0.110314
v -0.146666 0.069792 0.111766
v -0.146666 -0.006585 -0.122622
v -0.146666 -0.006585 0.124074
vt 0.000000 0.000000
vt 0.000000 0.000000
vt 0.000000 0.000000
vt 0.000000 0.000000
vt 0.000000 0.000000
vt 0.000000 0.000000
vt 0.000000 0.000000
vt 0.000000 0.000000
vt 0.000000 0.000000
vt 0.000000 0.000000
vt 0.000000 0.000000
vt 0.000000 0.000000
vt 0.000000 0.000000
vt 0.000000 0.000000
vt 0.000000 0.000000
vt 0.000000 0.000000
vt 0.000000 0.000000
vt 0.000000 0.000000
vt 0.000000 0.000000
vt 0.000000 0.000000
vt 0.000000 0.000000
vt 0.000000 0.000000
vt 0.000000 0.000000
vt 0.000000 0.000000
vt 0.000000 0.000000
vt 0.000000 0.000000
vt 0.000000 0.000000
vt 0.000000 0.000000
vt 0.000000 0.000000
vt 0.000000 0.000000
vt 0.000000 0.000000
vt 0.000000 0.000000
vt 0.000000 0.000000
vt 0.000000 0.000000
vt 0.000000 0.000000
vt 0.000000 0.000000
vt 0.000000 0.000000
vt 0.000000 0.000000
vt 0.000000 0.000000
vt 0.000000 0.000000
vt 0.000000 0.000000
vt 0.000000 0.000000
vt 0.000000 0.000000
vt 0.000000 0.000000
vt 0.000000 0.000000
vt 0.000000 0.000000
vt 0.000000 0.000000
vt 0.000000 0.000000
vt 0.000000 0.000000
vt 0.000000 0.000000
vt 0.000000 0.000000
vt 0.000000 0.000000
vt 0.000000 0.000000
vt 0.000000 0.000000
vt 0.000000 0.000000
vt 0.000000 0.000000
vt 0.000000 0.000000
vt 0.000000 0.000000
vt 0.000000 0.000000
vt 0.000000 0.000000
vt 0.000000 0.000000
vt 0.000000 0.000000
vt 0.000000 0.000000
vt 0.000000 0.000000
vt 0.000000 0.000000
vt 0.000000 0.000000
vt 0.000000 0.000000
vt 0.000000 0.000000
vt 0.000000 0.000000
vt 0.000000 0.000000
vt 0.000000 0.000000
vt 0.000000 0.000000
vt 0.000000 0.000000
vt 0.000000 0.000000
vt 0.000000 0.000000
vt 0.000000 0.000000
vt 0.000000 0.000000
vt 0.000000 0.000000
vt 0.000000 0.000000
vt 0.000000 0.000000
vt 0.000000 0.000000
vt 0.000000 0.000000
vt 0.000000 0.000000
vt 0.000000 0.000000
vt 0.000000 0.000000
vt 0.000000 0.000000
vt 0.000000 0.000000
vt 0.000000 0.000000
vt 0.000000 0.000000
vt 0.000000 0.000000
vt 0.000000 0.000000
vt 0.000000 0.000000
vt 0.000000 0.000000
vt 0.000000 0.000000
vt 0.000000 0.000000
vt 0.000000 0.000000
vt 0.000000 0.000000
vt 0.000000 0.000000
vt 0.000000 0.000000
vt 0.000000 0.000000
vt 0.000000 0.000000
vt 0.000000 0.000000
vt 0.000000 0.000000
vt 0.000000 0.000000
vt 0.000000 0.000000
vt 0.000000 0.000000
vt 0.000000 0.000000
vt 0.000000 0.000000
vt 0.000000 0.000000
vt 0.000000 0.000000
vt 0.000000 0.000000
vt 0.000000 0.000000
vt 0.000000 0.000000
vt 0.000000 0.000000
vt 0.000000 0.000000
vt 0.000000 0.000000
vt 0.000000 0.000000
vt 0.000000 0.000000
vt 0.000000 0.000000
vt 0.000000 0.000000
vt 0.000000 0.000000
vt 0.000000 0.000000
vt 0.000000 0.000000
vt 0.000000 0.000000
vt 0.000000 0.000000
vt 0.000000 0.000000
vt 0.000000 0.000000
vt 0.000000 0.000000
vt 0.000000 0.000000
vt 0.000000 0.000000
vt 0.000000 0.000000
vt 0.000000 0.000000
vt 0.000000 0.000000
vt 0.000000 0.000000
vn 0.0000 0.0279 -0.9996
vn 0.0000 0.0375 0.9993
vn 0.0000 -1.0000 -0.0000
vn 0.0000 0.0000 1.0000
vn -1.0000 0.0000 0.0000
vn 1.0000 0.0000 0.0000
vn 0.0000 1.0000 0.0000
vn 0.0000 0.0000 -1.0000
vn -0.0000 0.0550 0.9985
vn -0.0000 0.0626 -0.9980
vn 0.0000 0.1591 0.9873
vn -0.0000 0.1591 -0.9873
usemtl Stone
s 1
f 42/1/1 125/2/1 50/3/1 2/4/1
f 41/5/2 4/6/2 54/7/2 123/8/2
f 61/9/3 54/7/3 4/6/3 7/10/3
f 50/3/3 62/11/3 8/12/3 2/4/3
f 62/11/3 61/9/3 7/10/3 8/12/3
f 11/13/4 12/14/4 14/15/4 13/16/4
f 13/16/5 14/15/5 18/17/5 17/18/5
f 15/19/6 16/20/6 12/14/6 11/13/6
f 13/16/3 17/18/3 15/19/3 11/13/3
f 18/17/7 14/15/7 12/14/7 16/20/7
f 19/21/4 20/22/4 22/23/4 21/24/4
f 21/24/5 22/23/5 26/25/5 25/26/5
f 23/27/6 24/28/6 20/22/6 19/21/6
f 21/24/3 25/26/3 23/27/3 19/21/3
f 26/25/7 22/23/7 20/22/7 24/28/7
f 107/29/3 27/30/3 29/31/3 109/32/3
f 27/30/5 28/33/5 30/34/5 29/31/5
f 110/35/7 30/34/7 28/33/7 108/36/7
f 31/37/4 32/38/4 34/39/4 33/40/4
f 33/40/5 34/39/5 38/41/5 37/42/5
f 35/43/6 36/44/6 32/38/6 31/37/6
f 33/40/3 37/42/3 35/43/3 31/37/3
f 38/41/7 34/39/7 32/38/7 36/44/7
f 126/45/1 49/46/1 50/3/1 125/2/1
f 124/47/2 123/8/2 54/7/2 53/48/2
f 61/9/3 59/49/3 53/48/3 54/7/3
f 50/3/3 49/46/3 60/50/3 62/11/3
f 62/11/3 60/50/3 59/49/3 61/9/3
f 67/51/4 69/52/4 70/53/4 68/54/4
f 69/52/6 73/55/6 74/56/6 70/53/6
f 71/57/5 67/51/5 68/54/5 72/58/5
f 69/52/3 67/51/3 71/57/3 73/55/3
f 74/56/7 72/58/7 68/54/7 70/53/7
f 75/59/4 77/60/4 78/61/4 76/62/4
f 77/60/6 81/63/6 82/64/6 78/61/6
f 79/65/5 75/59/5 76/62/5 80/66/5
f 77/60/3 75/59/3 79/65/3 81/63/3
f 82/64/7 80/66/7 76/62/7 78/61/7
f 83/67/4 85/68/4 86/69/4 84/70/4
f 85/68/6 89/71/6 90/72/6 86/69/6
f 87/73/5 83/67/5 84/70/5 88/74/5
f 85/68/3 83/67/3 87/73/3 89/71/3
f 90/72/7 88/74/7 84/70/7 86/69/7
f 91/75/4 93/76/4 94/77/4 92/78/4
f 93/76/6 97/79/6 98/80/6 94/77/6
f 95/81/5 91/75/5 92/78/5 96/82/5
f 93/76/3 91/75/3 95/81/3 97/79/3
f 98/80/7 96/82/7 92/78/7 94/77/7
f 99/83/4 101/84/4 102/85/4 100/86/4
f 101/84/6 105/87/6 106/88/6 102/85/6
f 103/89/5 99/83/5 100/86/5 104/90/5
f 101/84/3 99/83/3 103/89/3 105/87/3
f 106/88/7 104/90/7 100/86/7 102/85/7
f 107/29/6 109/32/6 110/35/6 108/36/6
f 29/31/8 30/34/8 110/35/8 109/32/8
f 111/91/4 113/92/4 114/93/4 112/94/4
f 113/92/6 117/95/6 118/96/6 114/93/6
f 115/97/5 111/91/5 112/94/5 116/98/5
f 113/92/3 111/91/3 115/97/3 117/95/3
f 118/96/7 116/98/7 112/94/7 114/93/7
f 17/18/8 18/17/8 16/20/8 15/19/8
f 25/26/8 26/25/8 24/28/8 23/27/8
f 37/42/8 38/41/8 36/44/8 35/43/8
f 73/55/8 71/57/8 72/58/8 74/56/8
f 81/63/8 79/65/8 80/66/8 82/64/8
f 89/71/8 87/73/8 88/74/8 90/72/8
f 97/79/8 95/81/8 96/82/8 98/80/8
f 105/87/8 103/89/8 104/90/8 106/88/8
f 117/95/8 115/97/8 116/98/8 118/96/8
f 27/30/4 107/29/4 108/36/4 28/33/4
f 41/5/5 42/1/5 2/4/5 4/6/5
f 124/47/6 53/48/6 49/46/6 126/45/6
usemtl Stone_Light
f 5/99/7 3/100/7 52/101/7 56/102/7
f 1/103/7 6/104/7 55/105/7 48/106/7
f 5/99/8 56/102/8 64/107/8 9/108/8
f 55/105/4 6/104/4 10/109/4 63/110/4
f 3/100/9 39/111/9 119/112/9 52/101/9
f 1/103/10 48/106/10 121/113/10 40/114/10
f 39/111/3 41/5/3 123/8/3 119/112/3
f 40/114/3 121/113/3 125/2/3 42/1/3
f 43/115/5 46/116/5 45/117/5 44/118/5
f 44/118/11 45/117/11 134/119/11 132/120/11
f 45/117/3 46/116/3 133/121/3 134/119/3
f 46/116/12 43/115/12 131/122/12 133/121/12
f 43/115/7 44/118/7 132/120/7 131/122/7
f 57/123/7 56/102/7 52/101/7 51/124/7
f 47/125/7 48/106/7 55/105/7 58/126/7
f 57/123/8 65/127/8 64/107/8 56/102/8
f 55/105/4 63/110/4 66/128/4 58/126/4
f 51/124/9 52/101/9 119/112/9 120/129/9
f 47/125/10 122/130/10 121/113/10 48/106/10
f 120/129/3 119/112/3 123/8/3 124/47/3
f 122/130/3 126/45/3 125/2/3 121/113/3
f 127/131/6 128/132/6 129/133/6 130/134/6
f 128/132/11 132/120/11 134/119/11 129/133/11
f 129/133/3 134/119/3 133/121/3 130/134/3
f 130/134/12 133/121/12 131/122/12 127/131/12
f 127/131/7 131/122/7 132/120/7 128/132/7
f 51/124/6 120/129/6 124/47/6 65/127/6 57/123/6
f 47/125/6 58/126/6 66/128/6 126/45/6 122/130/6
f 1/103/5 40/114/5 42/1/5 10/109/5 6/104/5
f 3/100/5 5/99/5 9/108/5 41/5/5 39/111/5
usemtl Wood
f 10/109/7 9/108/7 64/107/7 63/110/7
f 66/128/7 63/110/7 64/107/7 65/127/7
f 66/128/6 65/127/6 124/47/6 126/45/6
f 10/109/5 42/1/5 41/5/5 9/108/5
